<?xml version="1.0" encoding="UTF-8"?>
<svg version="1.1" xmlns="http://www.w3.org/2000/svg" width="1024" height="1024">
<path d="M0 0 C2.16874252 0.50603992 3.99967627 0.99983813 6 2 C6.33 1.34 6.66 0.68 7 0 C7.33 0.33 7.66 0.66 8 1 C9.52748189 1.23800037 11.06373999 1.42017871 12.6015625 1.578125 C34.67384313 4.01966681 54.23312925 9.83398626 71 25 C71.84175781 25.73734375 72.68351562 26.4746875 73.55078125 27.234375 C86.68877166 39.43536154 93.99982121 56.43599299 95.22265625 74.2421875 C95.82180543 97.2182562 87.42234652 120.18662281 73 138 C80.37599586 134.49717981 87.29267142 130.49151513 94.1875 126.125 C95.22414795 125.47297607 96.2607959 124.82095215 97.32885742 124.14916992 C104.53306864 119.6024419 111.68333971 114.97579962 118.8125 110.3125 C119.76664795 109.68899658 120.7207959 109.06549316 121.70385742 108.4230957 C122.64334229 107.80909912 123.58282715 107.19510254 124.55078125 106.5625 C125.46811035 105.96308594 126.38543945 105.36367188 127.33056641 104.74609375 C129.04761127 103.62296362 130.76352648 102.49810358 132.47802734 101.37109375 C160.82993042 82.78426388 194.00744527 64.57818062 229 66 C229 65.34 229 64.68 229 64 C231.31 64 233.62 64 236 64 C236 64.33 236 64.66 236 65 C236.59167969 65.02578125 237.18335938 65.0515625 237.79296875 65.078125 C243.04981899 65.45545193 246.17748357 66.05802993 250 70 C251.56935594 73.13871188 251.35201103 75.53855822 251 79 C249.00390625 81.6953125 249.00390625 81.6953125 246 84 C243.02563195 84.43520017 240.52945983 84.59778078 237.5625 84.5625 C197.5728867 85.45549088 164.49883803 104.69029882 131.96484375 126.09765625 C107.48988266 142.16878265 82.25170073 158.67354769 54.69921875 169 C50.69741903 170.57806451 47.9700868 172.31152446 45 175.5 C43.9171875 176.62921875 43.9171875 176.62921875 42.8125 177.78125 C39.39153482 181.96898323 38.38002243 185.58468044 38 191 C38.60264182 193.84575944 38.60264182 193.84575944 40 196 C40.99 196.33 41.98 196.66 43 197 C44.051875 197.598125 45.10375 198.19625 46.1875 198.8125 C57.76257072 203.02733553 74.80658195 193.15351105 85.17333984 188.34765625 C97.95813389 182.25229754 110.39389225 175.55018979 122.46875 168.15234375 C154.30500629 148.65620586 187.98937986 137.08882088 225.6875 142.375 C226.60225098 142.50100586 227.51700195 142.62701172 228.45947266 142.75683594 C233.26392045 143.49400202 233.26392045 143.49400202 235 144 C235.33 144.66 235.66 145.32 236 146 C237.175625 146.20625 238.35125 146.4125 239.5625 146.625 C250.76657076 148.90166718 261.49941014 155.57478597 270 163 C271.02480469 163.79470703 271.02480469 163.79470703 272.0703125 164.60546875 C278.30149409 169.59278329 282.44493212 175.88986423 286 183 C286.68660598 189.98049415 286.68660598 189.98049415 283.9375 194.0625 C281 196 281 196 277.5625 196.25 C272.77836462 194.57135601 270.95749728 191.98183878 268 188 C256.20547217 172.19917875 236.2284597 164.96410223 217.43359375 161.53125 C215.28233122 161.25416431 213.16655712 161.09523328 211 161 C210.23429687 160.9484375 209.46859375 160.896875 208.6796875 160.84375 C179.01839963 159.75526237 153.13542221 173.91971024 128.42431641 188.53173828 C70.86817861 222.36943584 70.86817861 222.36943584 49 221 C48.67 221.66 48.34 222.32 48 223 C26.57528611 226.59025086 2.27301308 224.78270866 -19 221 C-20.09900635 220.8151001 -20.09900635 220.8151001 -21.22021484 220.62646484 C-38.52667441 217.62625011 -55.20518062 211.25868199 -71.83105469 205.72509766 C-111.51043958 192.54546457 -152.33174111 185.59843848 -191.35131836 205.03735352 C-193.18209581 206.01270068 -193.18209581 206.01270068 -195 208 C-196.0725 208.59296875 -197.145 209.1859375 -198.25 209.796875 C-201.90978589 211.84650664 -204.96085413 214.3735396 -208 217.25 C-208.51836426 217.73525146 -209.03672852 218.22050293 -209.57080078 218.72045898 C-225.48035505 233.78206733 -234.6199048 252.50058807 -235.375 274.5625 C-234.71232215 291.63919857 -228.48676191 307.30815369 -217 320 C-216.443125 320.64839844 -215.88625 321.29679687 -215.3125 321.96484375 C-196.61809498 342.31112507 -168.00505063 349.12485657 -141.85205078 353.65722656 C-141.01528809 353.80514648 -140.17852539 353.95306641 -139.31640625 354.10546875 C-138.57849854 354.23074951 -137.84059082 354.35603027 -137.08032227 354.48510742 C-132.99441388 355.49639492 -130.7167995 357.07227834 -128.1875 360.375 C-114.73897124 376.21373837 -95.54521744 385.56794686 -77 394 C-77.92702601 389.77861754 -79.87759412 386.23569213 -81.875 382.4375 C-86.06004108 374.26127279 -90.31915038 365.42250275 -89 356 C-87.5 353.1875 -87.5 353.1875 -85 351 C-80.09745297 349.58549463 -75.17126624 348.64530732 -70.15112305 347.7590332 C-44.55129976 343.11904938 -20.74899182 332.35494027 -4.97851562 310.90600586 C0.40232445 303.1052848 4.04352885 294.55865561 7.51464844 285.76806641 C11.17121469 276.71891065 11.17121469 276.71891065 16 274 C18.92578125 272.796875 18.92578125 272.796875 22.3125 271.75 C23.64596412 271.32462851 24.97928732 270.89881514 26.3125 270.47265625 C27.05113281 270.24078613 27.78976562 270.00891602 28.55078125 269.77001953 C43.75876653 264.98872113 58.66254881 260.01701498 73 253 C74.13332764 252.44771729 74.13332764 252.44771729 75.28955078 251.88427734 C93.37440992 242.96452736 109.84013638 231.58700689 126.37841797 220.12353516 C129.88546567 217.69362948 133.40756636 215.30201073 137 213 C137.83789062 212.44957031 138.67578125 211.89914062 139.5390625 211.33203125 C154.91569643 201.73752 175.58235239 194.18417559 194 196 C194.9796875 196.0928125 195.959375 196.185625 196.96875 196.28125 C215.09746517 198.52575759 229.5827714 206.82585531 241 221 C241.66 221.66 242.32 222.32 243 223 C251.02536018 239.42145711 252.30474649 254.81679254 252 273 C251.34 273 250.68 273 250 273 C250.07734375 274.42892578 250.07734375 274.42892578 250.15625 275.88671875 C250.1464806 280.75554573 248.8582866 285.16685943 247.5 289.8125 C247.23662842 290.72523682 246.97325684 291.63797363 246.7019043 292.57836914 C243.94559549 301.76156009 240.17953739 310.38727368 236 319 C235.46761719 320.13566406 234.93523437 321.27132813 234.38671875 322.44140625 C233 325 233 325 231 326 C230.72285156 326.69867187 230.44570313 327.39734375 230.16015625 328.1171875 C228.69355517 331.76146897 226.62339185 334.88444949 224.4375 338.125 C223.99204834 338.78733643 223.54659668 339.44967285 223.08764648 340.13208008 C210.05742455 359.25339352 192.68270156 378.23516835 174 392 C172.73168919 392.96994533 171.46346807 393.94000796 170.1953125 394.91015625 C136.04361138 420.66453836 93.1954101 438.88527974 50 440 C49.27651367 440.02578125 48.55302734 440.0515625 47.80761719 440.078125 C19.95338145 440.99325389 -7.89379784 436.47821558 -34.5625 428.55078125 C-37.02051861 427.89460622 -37.02051861 427.89460622 -39.6875 428.04296875 C-42 428 -42 428 -44 426 C-46.25935878 425.39161267 -46.25935878 425.39161267 -48.8125 425 C-52.4744482 424.37951861 -55.56048163 423.38176542 -59 422 C-60.66150537 421.45282155 -62.32853735 420.92221217 -64 420.40625 C-89.63783167 412.31258641 -116.85599094 400.7257462 -135.94262695 380.99145508 C-142.16164046 374.7710196 -147.76945898 373.32717111 -156.3125 371.9375 C-178.71055241 367.70168977 -198.9559727 360.29569374 -217.42578125 346.78515625 C-219.93778395 344.86476257 -219.93778395 344.86476257 -223 344 C-224.5078125 342.50390625 -224.5078125 342.50390625 -226.125 340.5625 C-228.83483586 337.34957225 -231.62767746 334.25588551 -234.5 331.1875 C-239.99479413 325.11035162 -244.44573877 318.38324796 -248 311 C-248.66 311 -249.32 311 -250 311 C-250.12375 309.99324219 -250.2475 308.98648437 -250.375 307.94921875 C-250.98333683 304.10529038 -251.92863209 300.55047111 -253 296.8125 C-259.27247469 272.85713544 -255.58363759 249.25137166 -243.6875 227.75 C-228.64429198 203.1816166 -206.44522193 188.34635326 -180.16015625 177.91015625 C-178.05904183 177.18473259 -178.05904183 177.18473259 -177 176 C-177.66 175.34 -178.32 174.68 -179 174 C-178.9175 173.236875 -178.835 172.47375 -178.75 171.6875 C-178.7295597 168.64294065 -178.7295597 168.64294065 -181.9375 166.3125 C-182.948125 165.549375 -183.95875 164.78625 -185 164 C-188.0655223 157.8689554 -185.62474249 150.27686592 -183.68408203 144.13671875 C-175.50668822 120.43786805 -162.33788136 99.5996058 -147 80 C-146.53787109 79.40574219 -146.07574219 78.81148438 -145.59960938 78.19921875 C-144.44811069 76.75942391 -143.22956848 75.37372478 -142 74 C-141.34 74 -140.68 74 -140 74 C-139.78601563 73.45988281 -139.57203125 72.91976562 -139.3515625 72.36328125 C-137.51371181 69.1496984 -135.00365019 66.7503633 -132.375 64.1875 C-131.83157959 63.6527002 -131.28815918 63.11790039 -130.72827148 62.56689453 C-114.53690605 46.73330952 -95.92035811 33.71563104 -76 23 C-75.37512695 22.66226562 -74.75025391 22.32453125 -74.10644531 21.9765625 C-51.06348834 9.64991282 -26.0356859 2.78262354 0 1 C0 0.67 0 0.34 0 0 Z " fill="#AECACB" transform="translate(491,248)"/>
<path d="M0 0 C8.83745794 6.61720989 16.47350008 15.53320714 18.37890625 26.78125 C20.7903926 63.46746856 3.87899077 96.61530665 -19.62109375 123.78125 C-29.51219264 135.00078305 -39.80817795 145.55902883 -51.62109375 154.78125 C-53.00748047 155.87566406 -53.00748047 155.87566406 -54.421875 156.9921875 C-71.15439745 169.89819263 -89.70189435 180.66174881 -109.62109375 187.78125 C-110.3162207 188.03116699 -111.01134766 188.28108398 -111.72753906 188.53857422 C-151.98750933 202.74214762 -200.7907844 206.55609493 -240.31811523 187.81005859 C-243.47815909 186.22646663 -246.55050676 184.53333262 -249.62109375 182.78125 C-250.46671875 182.30042969 -251.31234375 181.81960938 -252.18359375 181.32421875 C-264.81280826 173.49861619 -276.58338591 161.41781756 -282.62109375 147.78125 C-282.62109375 146.79125 -282.62109375 145.80125 -282.62109375 144.78125 C-281.20183594 144.45253906 -281.20183594 144.45253906 -279.75390625 144.1171875 C-257.41334421 138.82035385 -237.60042161 131.41754659 -219.62109375 116.78125 C-218.98171875 116.30558594 -218.34234375 115.82992187 -217.68359375 115.33984375 C-204.9332164 105.45239835 -195.76298369 88.51405207 -190.921875 73.5234375 C-189.25824876 70.01633354 -187.96123038 68.79826154 -184.62109375 66.78125 C-181.09327703 65.5238028 -177.49354155 64.59958369 -173.87109375 63.65625 C-142.07718104 54.84808307 -112.85172408 40.09059858 -86.3046875 20.62890625 C-62.14378929 2.95020025 -29.57433722 -19.36810527 0 0 Z " fill="#ADCACB" transform="translate(705.62109375,469.21875)"/>
<path d="M0 0 C0.91475098 0.12600586 1.82950195 0.25201172 2.77197266 0.38183594 C7.57642045 1.11900202 7.57642045 1.11900202 9.3125 1.625 C9.6425 2.285 9.9725 2.945 10.3125 3.625 C11.488125 3.83125 12.66375 4.0375 13.875 4.25 C25.07907076 6.52666718 35.81191014 13.19978597 44.3125 20.625 C45.33730469 21.41970703 45.33730469 21.41970703 46.3828125 22.23046875 C52.61399409 27.21778329 56.75743212 33.51486423 60.3125 40.625 C60.99910598 47.60549415 60.99910598 47.60549415 58.25 51.6875 C55.3125 53.625 55.3125 53.625 51.875 53.875 C47.09086462 52.19635601 45.26999728 49.60683878 42.3125 45.625 C30.51797217 29.82417875 10.5409597 22.58910223 -8.25390625 19.15625 C-10.40516878 18.87916431 -12.52094288 18.72023328 -14.6875 18.625 C-15.45320313 18.5734375 -16.21890625 18.521875 -17.0078125 18.46875 C-46.66910037 17.38026237 -72.55207779 31.54471024 -97.26318359 46.15673828 C-154.81932139 79.99443584 -154.81932139 79.99443584 -176.6875 78.625 C-177.0175 79.285 -177.3475 79.945 -177.6875 80.625 C-199.11221389 84.21525086 -223.41448692 82.40770866 -244.6875 78.625 C-245.4201709 78.5017334 -246.1528418 78.3784668 -246.90771484 78.25146484 C-264.21417441 75.25125011 -280.89268062 68.88368199 -297.51855469 63.35009766 C-337.19793958 50.17046457 -378.01924111 43.22343848 -417.03881836 62.66235352 C-418.86959581 63.63770068 -418.86959581 63.63770068 -420.6875 65.625 C-422.29625 66.51445312 -422.29625 66.51445312 -423.9375 67.421875 C-427.59728589 69.47150664 -430.64835413 71.9985396 -433.6875 74.875 C-434.20586426 75.36025146 -434.72422852 75.84550293 -435.25830078 76.34545898 C-451.16785505 91.40706733 -460.3074048 110.12558807 -461.0625 132.1875 C-460.39982215 149.26419857 -454.17426191 164.93315369 -442.6875 177.625 C-442.130625 178.27339844 -441.57375 178.92179688 -441 179.58984375 C-422.30559498 199.93612507 -393.69255063 206.74985657 -367.53955078 211.28222656 C-366.28440674 211.50410645 -366.28440674 211.50410645 -365.00390625 211.73046875 C-364.26599854 211.85574951 -363.52809082 211.98103027 -362.76782227 212.11010742 C-358.68191388 213.12139492 -356.4042995 214.69727834 -353.875 218 C-340.42647124 233.83873837 -321.23271744 243.19294686 -302.6875 251.625 C-303.61452601 247.40361754 -305.56509412 243.86069213 -307.5625 240.0625 C-311.74754108 231.88627279 -316.00665038 223.04750275 -314.6875 213.625 C-313.1875 210.8125 -313.1875 210.8125 -310.6875 208.625 C-305.78495297 207.21049463 -300.85876624 206.27030732 -295.83862305 205.3840332 C-270.23879976 200.74404938 -246.43649182 189.97994027 -230.66601562 168.53100586 C-225.28517555 160.7302848 -221.64397115 152.18365561 -218.17285156 143.39306641 C-214.51628531 134.34391065 -214.51628531 134.34391065 -209.6875 131.625 C-206.76171875 130.421875 -206.76171875 130.421875 -203.375 129.375 C-202.04153588 128.94962851 -200.70821268 128.52381514 -199.375 128.09765625 C-198.63636719 127.86578613 -197.89773438 127.63391602 -197.13671875 127.39501953 C-181.92873347 122.61372113 -167.02495119 117.64201498 -152.6875 110.625 C-151.93194824 110.25681152 -151.17639648 109.88862305 -150.39794922 109.50927734 C-132.31309008 100.58952736 -115.84736362 89.21200689 -99.30908203 77.74853516 C-95.80203433 75.31862948 -92.27993364 72.92701073 -88.6875 70.625 C-87.84960938 70.07457031 -87.01171875 69.52414062 -86.1484375 68.95703125 C-70.77180357 59.36252 -50.10514761 51.80917559 -31.6875 53.625 C-30.21796875 53.76421875 -30.21796875 53.76421875 -28.71875 53.90625 C-10.59003483 56.15075759 3.8952714 64.45085531 15.3125 78.625 C15.9725 79.285 16.6325 79.945 17.3125 80.625 C25.33786018 97.04645711 26.61724649 112.44179254 26.3125 130.625 C25.6525 130.625 24.9925 130.625 24.3125 130.625 C24.3640625 131.57761719 24.415625 132.53023437 24.46875 133.51171875 C24.4589806 138.38054573 23.1707866 142.79185943 21.8125 147.4375 C21.54912842 148.35023682 21.28575684 149.26297363 21.0144043 150.20336914 C18.25809549 159.38656009 14.49203739 168.01227368 10.3125 176.625 C9.78011719 177.76066406 9.24773437 178.89632812 8.69921875 180.06640625 C7.3125 182.625 7.3125 182.625 5.3125 183.625 C5.03535156 184.32367187 4.75820313 185.02234375 4.47265625 185.7421875 C3.00605517 189.38646897 0.93589185 192.50944949 -1.25 195.75 C-1.69545166 196.41233643 -2.14090332 197.07467285 -2.59985352 197.75708008 C-15.63007545 216.87839352 -33.00479844 235.86016835 -51.6875 249.625 C-52.95581081 250.59494533 -54.22403193 251.56500796 -55.4921875 252.53515625 C-89.64388862 278.28953836 -132.4920899 296.51027974 -175.6875 297.625 C-176.41098633 297.65078125 -177.13447266 297.6765625 -177.87988281 297.703125 C-205.73411855 298.61825389 -233.58129784 294.10321558 -260.25 286.17578125 C-262.70801861 285.51960622 -262.70801861 285.51960622 -265.375 285.66796875 C-267.6875 285.625 -267.6875 285.625 -269.6875 283.625 C-271.94685878 283.01661267 -271.94685878 283.01661267 -274.5 282.625 C-278.1619482 282.00451861 -281.24798163 281.00676542 -284.6875 279.625 C-286.34900537 279.07782155 -288.01603735 278.54721217 -289.6875 278.03125 C-315.32533167 269.93758641 -342.54349094 258.3507462 -361.63012695 238.61645508 C-367.84914046 232.3960196 -373.45695898 230.95217111 -382 229.5625 C-404.39805241 225.32668977 -424.6434727 217.92069374 -443.11328125 204.41015625 C-445.62528395 202.48976257 -445.62528395 202.48976257 -448.6875 201.625 C-450.1953125 200.12890625 -450.1953125 200.12890625 -451.8125 198.1875 C-454.52233586 194.97457225 -457.31517746 191.88088551 -460.1875 188.8125 C-465.68229413 182.73535162 -470.13323877 176.00824796 -473.6875 168.625 C-474.3475 168.625 -475.0075 168.625 -475.6875 168.625 C-475.81125 167.61824219 -475.935 166.61148438 -476.0625 165.57421875 C-476.67083683 161.73029038 -477.61613209 158.17547111 -478.6875 154.4375 C-484.95997469 130.48213544 -481.27113759 106.87637166 -469.375 85.375 C-456.81889835 64.86852831 -439.03043124 50.46205569 -417.4296875 40.43701172 C-416.00513031 39.7730435 -414.59414247 39.0800296 -413.1875 38.37890625 C-404.3395643 34.31833576 -394.21846486 33.22795767 -384.6875 31.625 C-383.05167969 31.32722656 -383.05167969 31.32722656 -381.3828125 31.0234375 C-342.26613068 26.80578259 -306.07213161 39.06751164 -269.60546875 51.3359375 C-259.02061662 54.87634944 -248.37423857 57.44861471 -237.375 59.3125 C-236.67076904 59.43189941 -235.96653809 59.55129883 -235.2409668 59.67431641 C-216.07458824 62.74751923 -196.70587493 62.66172996 -177.609375 59.28125 C-173.6875 58.625 -173.6875 58.625 -169.6875 58.625 C-169.6875 57.965 -169.6875 57.305 -169.6875 56.625 C-168.74132812 56.356875 -167.79515625 56.08875 -166.8203125 55.8125 C-144.22861155 49.20552043 -123.31251322 38.03840957 -103.2890625 25.8125 C-71.37880812 6.34776996 -37.76994766 -5.29625106 0 0 Z M-54.6875 74.625 C-55.61949219 74.95371094 -56.55148437 75.28242188 -57.51171875 75.62109375 C-72.85267364 81.5403674 -86.01257926 91.5458906 -99.33496094 100.96630859 C-127.68721004 120.95646845 -158.98363455 136.30263439 -192.65136719 145.04223633 C-196.20513545 145.99905516 -198.32157774 146.8072608 -200.6875 149.625 C-201.69594496 151.54600951 -201.69594496 151.54600951 -202.484375 153.6875 C-202.79930908 154.47882324 -203.11424316 155.27014648 -203.4387207 156.08544922 C-203.76831787 156.92350098 -204.09791504 157.76155273 -204.4375 158.625 C-215.3796889 185.34587036 -235.08484628 203.09729823 -261.48999023 214.1796875 C-271.94141434 218.38137387 -282.57998288 221.71942144 -293.6875 223.625 C-291.74021495 237.18297214 -278.21174492 249.01818557 -268.109375 257.171875 C-257.16277648 265.30104911 -244.77497782 270.19021588 -231.6875 273.625 C-230.58921875 273.92019531 -229.4909375 274.21539063 -228.359375 274.51953125 C-182.39893655 286.00964086 -130.20043117 276.15147601 -89.55078125 252.2421875 C-76.69571849 244.44316177 -64.68751262 235.88909628 -53.6875 225.625 C-52.39983098 224.5161739 -51.1083036 223.41180879 -49.8125 222.3125 C-21.86136613 197.86231623 3.94570726 161.72049042 7.3125 123.625 C8.18050907 110.44732497 7.67663362 99.1009317 -1.07421875 88.4609375 C-1.60660156 87.85507812 -2.13898438 87.24921875 -2.6875 86.625 C-3.18894531 86.01914062 -3.69039062 85.41328125 -4.20703125 84.7890625 C-11.7754298 76.35517799 -22.63955492 72.19030904 -33.74609375 71.41015625 C-41.22878723 71.18981781 -47.6422293 72.13546944 -54.6875 74.625 Z " fill="#6F9CA6" transform="translate(716.6875,390.375)"/>
<path d="M0 0 C2.16874252 0.50603992 3.99967627 0.99983813 6 2 C6.33 1.34 6.66 0.68 7 0 C7.33 0.33 7.66 0.66 8 1 C9.52748189 1.23800037 11.06373999 1.42017871 12.6015625 1.578125 C34.67384313 4.01966681 54.23312925 9.83398626 71 25 C71.84175781 25.73734375 72.68351562 26.4746875 73.55078125 27.234375 C86.68877166 39.43536154 93.99982121 56.43599299 95.22265625 74.2421875 C95.82180543 97.2182562 87.42234652 120.18662281 73 138 C80.37599586 134.49717981 87.29267142 130.49151513 94.1875 126.125 C95.22414795 125.47297607 96.2607959 124.82095215 97.32885742 124.14916992 C104.53306864 119.6024419 111.68333971 114.97579962 118.8125 110.3125 C119.76664795 109.68899658 120.7207959 109.06549316 121.70385742 108.4230957 C122.64334229 107.80909912 123.58282715 107.19510254 124.55078125 106.5625 C125.46811035 105.96308594 126.38543945 105.36367188 127.33056641 104.74609375 C129.04761127 103.62296362 130.76352648 102.49810358 132.47802734 101.37109375 C160.82993042 82.78426388 194.00744527 64.57818062 229 66 C229 65.34 229 64.68 229 64 C231.31 64 233.62 64 236 64 C236 64.33 236 64.66 236 65 C236.59167969 65.02578125 237.18335938 65.0515625 237.79296875 65.078125 C243.04981899 65.45545193 246.17748357 66.05802993 250 70 C251.56935594 73.13871188 251.35201103 75.53855822 251 79 C249.00390625 81.6953125 249.00390625 81.6953125 246 84 C243.02563195 84.43520017 240.52945983 84.59778078 237.5625 84.5625 C197.5728867 85.45549088 164.49883803 104.69029882 131.96484375 126.09765625 C108.80371538 141.30607355 85.29549338 155.61702798 60 167 C59.195625 167.37640625 58.39125 167.7528125 57.5625 168.140625 C45.73915859 172.10576999 32.39290243 173.72232917 20 173 C18.35034885 172.94146289 16.70059759 172.88571156 15.05078125 172.83203125 C13.26295502 172.76474747 11.47519306 172.69573372 9.6875 172.625 C8.8507373 172.59446533 8.01397461 172.56393066 7.15185547 172.5324707 C-0.05927326 172.1843324 -6.99726986 171.36562192 -13 167 C-14.39935013 164.20129973 -14.25265405 162.09501208 -14 159 C-12.43747767 156.89952488 -11.55242641 156.09959627 -8.95385742 155.63110352 C-8.17888916 155.63037842 -7.4039209 155.62965332 -6.60546875 155.62890625 C-5.73937988 155.614646 -4.87329102 155.60038574 -3.98095703 155.58569336 C-2.5981958 155.57421265 -2.5981958 155.57421265 -1.1875 155.5625 C17.48264875 154.99264935 33.95634478 148.53993688 48 136 C48.74636719 135.34644531 49.49273438 134.69289063 50.26171875 134.01953125 C65.09362477 120.1948854 74.64016826 98.71009785 75.47290039 78.43115234 C75.6520448 64.01244814 70.57705548 51.83117005 60.75 41.25 C49.30062194 30.56732137 34.91859721 25.51431158 20 22 C19.23042969 21.80277344 18.46085938 21.60554688 17.66796875 21.40234375 C-21.87198571 15.43951021 -61.91218597 34.21666183 -93.0234375 56.984375 C-98.91319766 61.39530864 -104.48837123 66.12942966 -110 71 C-110.88171875 71.75925781 -111.7634375 72.51851563 -112.671875 73.30078125 C-127.84618115 86.56651784 -139.90324631 102.63276444 -150 120 C-150.73491041 121.20879978 -151.47061751 122.41711548 -152.20703125 123.625 C-158.95978023 134.91707288 -163.92291356 146.98322359 -167.78613281 159.55908203 C-168.15883301 160.76927002 -168.15883301 160.76927002 -168.5390625 162.00390625 C-168.85544678 163.0858728 -168.85544678 163.0858728 -169.17822266 164.18969727 C-170 166 -170 166 -173 168 C-177.47767851 168.32160122 -181.00623407 167.77562219 -184.5625 165 C-188.2070591 157.39396361 -185.56239447 149.57017768 -182.94140625 141.984375 C-174.40507927 119.12551169 -161.95029556 99.1043269 -147 80 C-146.53787109 79.40574219 -146.07574219 78.81148438 -145.59960938 78.19921875 C-144.44811069 76.75942391 -143.22956848 75.37372478 -142 74 C-141.34 74 -140.68 74 -140 74 C-139.78601563 73.45988281 -139.57203125 72.91976562 -139.3515625 72.36328125 C-137.51371181 69.1496984 -135.00365019 66.7503633 -132.375 64.1875 C-131.83157959 63.6527002 -131.28815918 63.11790039 -130.72827148 62.56689453 C-114.53690605 46.73330952 -95.92035811 33.71563104 -76 23 C-75.37512695 22.66226562 -74.75025391 22.32453125 -74.10644531 21.9765625 C-51.06348834 9.64991282 -26.0356859 2.78262354 0 1 C0 0.67 0 0.34 0 0 Z " fill="#6F9CA5" transform="translate(491,248)"/>
<path d="M0 0 C3.11973573 3.38714165 5.05779383 6.69267634 5.28515625 11.39453125 C4.90297135 16.26971916 3.35879032 19.56945161 0.1875 23.375 C-4.24988559 26.13772194 -8.74367125 26.00058329 -13.8125 25.375 C-18.72354625 23.19231278 -21.05046054 20.25146762 -23.1875 15.4609375 C-24.49678116 11.09121163 -23.3903596 7.64629111 -21.5625 3.625 C-19.15837648 0.53398405 -16.57633837 -0.89513585 -13 -2.375 C-8.13225014 -2.93131427 -4.19304818 -2.42265006 0 0 Z " fill="#729FA8" transform="translate(424.8125,512.625)"/>
<path d="M0 0 C2.82248109 4.23372164 4.89402796 7.80737012 5 13 C4.08721353 17.16004452 2.67916601 20.22095663 -0.125 23.4375 C-5.22404463 26.20871991 -9.9842421 26.5304626 -15.5625 25.0625 C-16.7690625 24.5365625 -16.7690625 24.5365625 -18 24 C-18 23.34 -18 22.68 -18 22 C-18.99 21.67 -19.98 21.34 -21 21 C-24.11700995 15.54523258 -24.47671298 12.10374699 -23 6 C-17.79153378 -3.01465307 -8.839503 -2.946501 0 0 Z " fill="#729FA7" transform="translate(376,512)"/>
<path d="M0 0 C0.33 0.66 0.66 1.32 1 2 C2.11375 2.1546875 2.11375 2.1546875 3.25 2.3125 C7.57778583 3.39444646 9.81490125 6.30700179 12.3125 9.875 C13.79795826 14.46641645 13.5589717 17.90355552 11.375 22.1875 C7.64476401 26.60488472 4.8790596 28.76138926 -0.9375 29.5 C-5.5171542 29.24557477 -8.3037846 27.68156803 -12 25 C-15.21334048 21.37203494 -15.52312153 17.90152459 -15.3515625 13.21484375 C-14.62802924 8.65658423 -12.24445189 5.91696455 -8.625 3.25 C-5.80475982 1.90702848 -2.98830241 0.90344026 0 0 Z " fill="#709DA5" transform="translate(316,508)"/>
<path d="M0 0 C2.36771538 2.99487809 4.18080052 6.08562496 6 9.4375 C15.65723225 26.10893251 29.3820216 37.67282101 46 47 C47.46566406 47.82951172 47.46566406 47.82951172 48.9609375 48.67578125 C50.96642496 49.7987277 52.97700686 50.90900912 55 52 C55 52.66 55 53.32 55 54 C49.2140983 52.65724837 44.89020501 50.35768852 39.9375 47.125 C39.25623047 46.69058594 38.57496094 46.25617187 37.87304688 45.80859375 C35.90732228 44.5509832 33.95227813 43.27835915 32 42 C30.8965625 41.28199219 29.793125 40.56398438 28.65625 39.82421875 C25.71529887 37.80447731 23.4616009 35.58167899 21 33 C20.48824219 32.52046875 19.97648437 32.0409375 19.44921875 31.546875 C10.71824356 23.27753757 1.23854051 12.38540509 0 0 Z " fill="#6C9397" transform="translate(243,554)"/>
<path d="M0 0 C19.8 0 39.6 0 60 0 C45.42829327 7.28585336 18.36653482 6.2891431 2.75 1.9375 C1.8425 1.628125 0.935 1.31875 0 1 C0 0.67 0 0.34 0 0 Z " fill="#6A9195" transform="translate(501,684)"/>
<path d="M0 0 C1.8871875 0.061875 1.8871875 0.061875 3.8125 0.125 C3.8125 0.455 3.8125 0.785 3.8125 1.125 C2.719375 1.434375 1.62625 1.74375 0.5 2.0625 C-1.74157994 2.70837897 -3.9744351 3.3873117 -6.1875 4.125 C-7.99794608 8.4042362 -7.60310538 13.46257849 -6.5 17.875 C-4.75074376 20.87372498 -3.40226838 21.79716089 -0.1875 23.125 C3.87851951 23.56959458 7.90699661 23.42683446 11.8125 22.125 C10.8125 25.125 10.8125 25.125 8.8125 26.125 C3.9442925 26.6591019 -0.05378097 26.62887512 -4.5625 24.625 C-7.86758416 21.4773008 -9.87382395 18.50939382 -11.1875 14.125 C-11.10570381 9.29902503 -10.0645805 5.99799298 -7.1875 2.125 C-4.09861478 0.06574319 -3.47814073 -0.1140374 0 0 Z " fill="#6A9396" transform="translate(412.1875,511.875)"/>
<path d="M0 0 C1.27762207 -0.01353516 1.27762207 -0.01353516 2.58105469 -0.02734375 C7.30461486 -0.00500133 11.12377151 0.43120394 15.5625 2.25 C15.5625 2.58 15.5625 2.91 15.5625 3.25 C14.64549316 3.27505615 13.72848633 3.3001123 12.78369141 3.32592773 C9.33568225 3.42186288 5.88779633 3.52103983 2.43994141 3.62231445 C0.95625369 3.6652523 -0.52747051 3.70695012 -2.01123047 3.74731445 C-10.19163331 3.97071723 -18.30220366 4.29526601 -26.4375 5.25 C-25.4475 4.92 -24.4575 4.59 -23.4375 4.25 C-23.4375 3.59 -23.4375 2.93 -23.4375 2.25 C-15.59023641 0.6461797 -7.99240223 0.03517009 0 0 Z " fill="#6C9397" transform="translate(695.4375,388.75)"/>
<path d="M0 0 C0.89380371 0.30127808 0.89380371 0.30127808 1.80566406 0.60864258 C-29.19555995 21.36966281 -29.19555995 21.36966281 -35.19433594 23.60864258 C-33.71323337 19.00777076 -29.93696352 17.29279982 -26.00683594 14.98364258 C-24.55869371 14.11247904 -23.11211734 13.23870811 -21.66699219 12.36254883 C-20.92723145 11.91411621 -20.1874707 11.46568359 -19.42529297 11.00366211 C-17.21967862 9.62448938 -15.07682427 8.1822733 -12.94042969 6.69848633 C-11.9324231 6.00070068 -11.9324231 6.00070068 -10.90405273 5.28881836 C-9.61880872 4.3918535 -8.34002339 3.48554673 -7.06860352 2.5690918 C-2.67080308 -0.47633482 -2.67080308 -0.47633482 0 0 Z " fill="#6A9195" transform="translate(632.1943359375,345.391357421875)"/>
<path d="M0 0 C0.33 0 0.66 0 1 0 C0.48953646 5.01955813 -0.15413515 9.96330967 -1 14.9375 C-2.32269611 23.24876958 -2.64187623 31.60294006 -3 40 C-5.77251124 35.84123314 -5.34201297 32.45315633 -5.3125 27.5625 C-5.30839111 26.21466431 -5.30839111 26.21466431 -5.30419922 24.83959961 C-5.16487534 15.93648373 -3.38119123 8.21776476 0 0 Z " fill="#658E92" transform="translate(258,495)"/>
<path d="M0 0 C2.6048968 1.24202554 5.10975 2.6200941 7.609375 4.05859375 C8.28226562 4.44466797 8.95515625 4.83074219 9.6484375 5.22851562 C11.03605624 6.02678328 12.42152671 6.82879836 13.8046875 7.63476562 C18.41765923 10.27012305 22.98169432 12.2503441 28 14 C28 14.66 28 15.32 28 16 C30.97 16.99 33.94 17.98 37 19 C37 19.33 37 19.66 37 20 C29.76842377 19.63588082 24.66621615 17.14141341 18.375 13.6875 C17.45976562 13.20087891 16.54453125 12.71425781 15.6015625 12.21289062 C1.69551104 4.74743092 1.69551104 4.74743092 0 0 Z " fill="#688F93" transform="translate(372,640)"/>
<path d="M0 0 C0.33 0.99 0.66 1.98 1 3 C-0.33289704 5.5655319 -1.70530732 7.94293068 -3.25 10.375 C-3.65863281 11.035 -4.06726563 11.695 -4.48828125 12.375 C-5.28935284 13.66804804 -6.095805 14.9577803 -6.90795898 16.24389648 C-7.82691192 17.72165828 -8.69507735 19.23082966 -9.55078125 20.74609375 C-11.11170554 23.17373071 -12.74737391 24.81685487 -14.9375 26.6875 C-15.94103516 27.55955078 -15.94103516 27.55955078 -16.96484375 28.44921875 C-18.90793381 29.92984592 -20.78124274 30.99237646 -23 32 C-20.96135783 28.34716483 -18.71565594 25.50078419 -15.8125 22.5 C-11.3362892 17.63677587 -8.04822683 12.55561373 -4.7265625 6.8828125 C-3.27056898 4.45176449 -1.75055444 2.22309674 0 0 Z " fill="#6E9598" transform="translate(496,543)"/>
<path d="M0 0 C1.21236328 0.02707031 1.21236328 0.02707031 2.44921875 0.0546875 C3.37154297 0.08949219 3.37154297 0.08949219 4.3125 0.125 C4.3125 0.785 4.3125 1.445 4.3125 2.125 C2.4871875 2.2178125 2.4871875 2.2178125 0.625 2.3125 C-2.62898157 2.74597889 -3.8379825 3.22532167 -6.6875 5.125 C-9.78004254 9.76381381 -9.21348049 13.99680027 -8.31640625 19.33203125 C-8.10886719 19.92371094 -7.90132813 20.51539063 -7.6875 21.125 C-5.26366923 22.29453416 -5.26366923 22.29453416 -2.6875 23.125 C-2.0275 23.785 -1.3675 24.445 -0.6875 25.125 C-7.04044118 24.06617647 -7.04044118 24.06617647 -9.6875 22.125 C-12.84149218 16.68708245 -13.16376634 13.22690088 -11.6875 7.125 C-8.55832707 2.32693485 -5.82640219 -0.16888122 0 0 Z " fill="#6F9699" transform="translate(364.6875,510.875)"/>
<path d="M0 0 C5.54739252 0.94502041 8.57191729 4.78129642 12 9 C21.17540112 22.93154857 21.17540112 22.93154857 21 31 C18.79995924 28.79995924 18.36914572 27.46596298 17.375 24.5625 C13.96776012 15.79740707 8.07873003 8.6136365 1.25 2.2421875 C0.8375 1.83226562 0.425 1.42234375 0 1 C0 0.67 0 0.34 0 0 Z " fill="#689093" transform="translate(560,274)"/>
<path d="M0 0 C0.33 0 0.66 0 1 0 C0.90150757 0.97030151 0.90150757 0.97030151 0.80102539 1.96020508 C0.1003757 9.19896509 -0.29106815 16.42113586 -0.5625 23.6875 C-0.60568359 24.78255859 -0.64886719 25.87761719 -0.69335938 27.00585938 C-0.79808269 29.67048597 -0.90025779 32.33518311 -1 35 C-1.33 35 -1.66 35 -2 35 C-3.8667314 28.96057489 -4.11222689 23.62493716 -3.75 17.375 C-3.71140869 16.65900635 -3.67281738 15.9430127 -3.63305664 15.20532227 C-3.25894127 9.87248886 -2.41668543 4.83337085 0 0 Z " fill="#63898D" transform="translate(239,498)"/>
<path d="M0 0 C-21.52429084 13.601239 -21.52429084 13.601239 -25 15 C-25.66 14.67 -26.32 14.34 -27 14 C-23.31437931 10.01642441 -18.66857361 7.54037439 -14.0625 4.75 C-12.7022168 3.89921875 -12.7022168 3.89921875 -11.31445312 3.03125 C-10.43853516 2.50015625 -9.56261719 1.9690625 -8.66015625 1.421875 C-7.86230713 0.93299805 -7.06445801 0.44412109 -6.24243164 -0.05957031 C-3.65415016 -1.14504231 -2.57895194 -0.98308955 0 0 Z " fill="#679195" transform="translate(617,417)"/>
<path d="M0 0 C0.66 0.33 1.32 0.66 2 1 C-5.90328664 6.81263767 -13.91369872 12.44629229 -22 18 C-22.66 17.67 -23.32 17.34 -24 17 C-20.18124617 12.9016457 -16.12481581 9.85902483 -11.4375 6.8125 C-10.77814453 6.37486328 -10.11878906 5.93722656 -9.43945312 5.48632812 C-2.64804852 1.01560449 -2.64804852 1.01560449 0 0 Z " fill="#6B9498" transform="translate(622,466)"/>
<path d="M0 0 C-2.63017092 2.04503177 -5.26060897 3.78626862 -8.1875 5.375 C-8.96867187 5.80296875 -9.74984375 6.2309375 -10.5546875 6.671875 C-13 8 -13 8 -15.4453125 9.328125 C-16.61707031 9.97007812 -16.61707031 9.97007812 -17.8125 10.625 C-18.52019531 11.00914062 -19.22789062 11.39328125 -19.95703125 11.7890625 C-22.09592911 13.05686046 -24.03838613 14.47479012 -26 16 C-26.66 15.67 -27.32 15.34 -28 15 C-24.8084379 11.44232355 -21.21231165 9.20699657 -17.0625 6.9375 C-12.09880999 4.18689711 -12.09880999 4.18689711 -7.234375 1.265625 C-4.62405317 -0.21294891 -2.95321739 -0.25313292 0 0 Z " fill="#6B9295" transform="translate(425,268)"/>
<path d="M0 0 C0.58523438 0.21398437 1.17046875 0.42796875 1.7734375 0.6484375 C0.52240234 1.60943359 0.52240234 1.60943359 -0.75390625 2.58984375 C-7.26010559 7.5898439 -13.75758268 12.60029304 -20.2265625 17.6484375 C-20.2265625 14.6484375 -20.2265625 14.6484375 -18.3203125 12.59765625 C-15.63920188 10.25976009 -12.95172266 7.93493228 -10.2265625 5.6484375 C-9.46601563 5.00261719 -8.70546875 4.35679687 -7.921875 3.69140625 C-2.79271472 -0.44095496 -2.79271472 -0.44095496 0 0 Z " fill="#6A9195" transform="translate(388.2265625,289.3515625)"/>
<path d="M0 0 C2.13208008 0.40063477 2.13208008 0.40063477 4 1 C2.69675781 2.17755859 2.69675781 2.17755859 1.3671875 3.37890625 C-4.44202935 8.66261138 -10.09820689 13.83774581 -15 20 C-15.33 19.01 -15.66 18.02 -16 17 C-14.07141444 14.01945867 -11.44754947 11.56179774 -9 9 C-8.23042969 8.15566406 -7.46085937 7.31132812 -6.66796875 6.44140625 C-5.89066406 5.61511719 -5.11335938 4.78882813 -4.3125 3.9375 C-3.58675781 3.16277344 -2.86101562 2.38804687 -2.11328125 1.58984375 C-1.41589844 1.06519531 -0.71851563 0.54054688 0 0 Z " fill="#658D91" transform="translate(272,447)"/>
<path d="M0 0 C0.99 0.33 1.98 0.66 3 1 C3.36484266 7.32393945 3.36484266 7.32393945 1.80737305 10.20996094 C0 12 0 12 -2.36010742 12.45410156 C-3.26607666 12.4331543 -4.1720459 12.41220703 -5.10546875 12.390625 C-6.57983398 12.37128906 -6.57983398 12.37128906 -8.08398438 12.3515625 C-9.10814453 12.31804687 -10.13230469 12.28453125 -11.1875 12.25 C-12.74114258 12.22292969 -12.74114258 12.22292969 -14.32617188 12.1953125 C-16.88504284 12.14814437 -19.44205842 12.08234057 -22 12 C-22 11.67 -22 11.34 -22 11 C-21.05362671 10.91697632 -21.05362671 10.91697632 -20.08813477 10.83227539 C-17.2458232 10.5803188 -14.40417781 10.32150231 -11.5625 10.0625 C-10.07266602 9.93198242 -10.07266602 9.93198242 -8.55273438 9.79882812 C-7.60849609 9.71181641 -6.66425781 9.62480469 -5.69140625 9.53515625 C-4.81685791 9.456604 -3.94230957 9.37805176 -3.04125977 9.29711914 C-1.00985544 9.20914952 -1.00985544 9.20914952 0 8 C0.07148199 6.64756083 0.08399454 5.29165633 0.0625 3.9375 C0.041875 2.638125 0.02125 1.33875 0 0 Z " fill="#608689" transform="translate(739,319)"/>
<path d="M0 0 C8.12656779 1.11401105 13.86991737 7.49821332 19.1015625 13.421875 C19.39804687 13.94265625 19.69453125 14.4634375 20 15 C19.67 15.99 19.34 16.98 19 18 C18.19949219 17.03900391 18.19949219 17.03900391 17.3828125 16.05859375 C12.64855873 10.56260018 7.96642354 6.2202892 1.87109375 2.27734375 C1.25363281 1.85582031 0.63617187 1.43429687 0 1 C0 0.67 0 0.34 0 0 Z " fill="#699194" transform="translate(712,454)"/>
<path d="M0 0 C3.70671886 1.23557295 3.88274832 2.14905706 5.6875 5.5 C8.43396587 10.31496283 11.64432118 14.18505592 15.4609375 18.1875 C17 20 17 20 17 22 C8.92015186 18.47168204 3.8504158 9.58799889 0 2 C0 1.34 0 0.68 0 0 Z " fill="#6C9396" transform="translate(260,551)"/>
<path d="M0 0 C1.31147444 2.62294888 0.95729103 4.45569979 0.8125 7.375 C0.69192403 11.80456815 0.69192403 11.80456815 2.875 15.5625 C3.57625 16.036875 4.2775 16.51125 5 17 C5.66 17.66 6.32 18.32 7 19 C3.00278343 18.81830834 1.42588807 18.44830323 -1.375 15.5 C-3.32865128 11.29213571 -3.96838945 7.58022036 -3 3 C-1.47265625 1.23046875 -1.47265625 1.23046875 0 0 Z " fill="#6B9397" transform="translate(304,516)"/>
<path d="M0 0 C0.66 0 1.32 0 2 0 C3.86270723 5.49008446 4.43683853 8.86482679 2.05859375 14.234375 C0.46697212 16.88903543 -1.36552261 18.41931357 -4 20 C-4.99 20 -5.98 20 -7 20 C-7 19.34 -7 18.68 -7 18 C-5.33720673 16.9935725 -3.67016516 15.99414593 -2 15 C0.35119399 11.47320901 0.21443452 9.97120515 0.125 5.8125 C0.10695313 4.72582031 0.08890625 3.63914062 0.0703125 2.51953125 C0.04710937 1.68808594 0.02390625 0.85664062 0 0 Z " fill="#6B9296" transform="translate(377,517)"/>
<path d="M0 0 C4.23184432 1.40554973 6.92082061 3.42780598 10.1875 6.4375 C11.04730469 7.21996094 11.90710938 8.00242187 12.79296875 8.80859375 C15 11 15 11 17 14 C16.67 14.99 16.34 15.98 16 17 C15.43152344 16.33613281 14.86304688 15.67226563 14.27734375 14.98828125 C9.07401092 8.98691719 9.07401092 8.98691719 2.9375 4 C1.968125 3.34 0.99875 2.68 0 2 C0 1.34 0 0.68 0 0 Z " fill="#698F93" transform="translate(754,407)"/>
<path d="M0 0 C3.89332736 1.63148956 6.64719075 4.17627942 9.75 7 C10.25660156 7.45117188 10.76320313 7.90234375 11.28515625 8.3671875 C12.56545817 9.53360812 13.78791729 10.76283971 15 12 C15 12.66 15 13.32 15 14 C11.36463485 12.43230174 8.74479612 10.20026712 5.8125 7.5625 C4.93207031 6.78003906 4.05164063 5.99757813 3.14453125 5.19140625 C1 3 1 3 0 0 Z " fill="#658E92" transform="translate(360,608)"/>
<path d="M0 0 C1.94140625 0.734375 1.94140625 0.734375 4 2 C5.61887656 6.42316 5.29883409 10.25941116 3.5625 14.5625 C3.046875 15.366875 2.53125 16.17125 2 17 C1.34 17 0.68 17 0 17 C0.495 15.515 0.495 15.515 1 14 C1.09329934 12.35628509 1.12995144 10.70885323 1.125 9.0625 C1.12886719 7.78052734 1.12886719 7.78052734 1.1328125 6.47265625 C1.00930254 4.17319148 0.64420687 2.20359652 0 0 Z " fill="#699194" transform="translate(425,516)"/>
<path d="M0 0 C-0.66 0 -1.32 0 -2 0 C-2 0.66 -2 1.32 -2 2 C-4.41151557 3.03479213 -6.82794469 4.0529372 -9.25 5.0625 C-10.27287109 5.50432617 -10.27287109 5.50432617 -11.31640625 5.95507812 C-15.01989395 7.48321625 -17.1840347 8.24129373 -21 7 C-18.56343315 5.85214624 -16.12580719 4.70664598 -13.6875 3.5625 C-12.99720703 3.23701172 -12.30691406 2.91152344 -11.59570312 2.57617188 C-3.56334714 -1.18778238 -3.56334714 -1.18778238 0 0 Z " fill="#678E92" transform="translate(319,444)"/>
<path d="M0 0 C4.50284396 0.6273046 8.24223673 2.39620149 12.25 4.4375 C12.88679687 4.75009766 13.52359375 5.06269531 14.1796875 5.38476562 C18.87326759 7.74653518 18.87326759 7.74653518 20 10 C15.49715604 9.3726954 11.75776327 7.60379851 7.75 5.5625 C7.11320313 5.24990234 6.47640625 4.93730469 5.8203125 4.61523438 C1.12673241 2.25346482 1.12673241 2.25346482 0 0 Z " fill="#678E92" transform="translate(727,412)"/>
<path d="M0 0 C-2.44357353 2.44357353 -3.75759573 2.50439261 -7.125 3.0625 C-8.10339844 3.22621094 -9.08179688 3.38992188 -10.08984375 3.55859375 C-13.72149223 4.10943439 -17.35014724 4.58680912 -21 5 C-16.08584183 -1.35949881 -7.16910193 -0.23335232 0 0 Z " fill="#678D91" transform="translate(703,317)"/>
<path d="M0 0 C3.65415742 1.56363945 6.2119688 3.82175042 9.125 6.5 C9.99382812 7.2940625 10.86265625 8.088125 11.7578125 8.90625 C13.19408422 10.24743753 14.61045683 11.61045683 16 13 C11.66867694 12.48637408 9.50784116 11.11158979 6.3125 8.1875 C5.54550781 7.50042969 4.77851563 6.81335938 3.98828125 6.10546875 C2.12057105 4.1276774 1.04608398 2.48934423 0 0 Z " fill="#688F93" transform="translate(352,624)"/>
<path d="M0 0 C6.34833705 -0.23415997 11.95679072 -0.08765411 18 2 C18.33 2.99 18.66 3.98 19 5 C16.39409649 4.55018927 13.79059469 4.09055778 11.1875 3.625 C10.44951172 3.49867188 9.71152344 3.37234375 8.95117188 3.2421875 C5.39405354 2.59836518 3.04505916 2.03003944 0 0 Z " fill="#6A9094" transform="translate(340,602)"/>
<path d="M0 0 C0.66 0.33 1.32 0.66 2 1 C1 3 1 3 -1.51171875 4.0703125 C-3.08373047 4.59238281 -3.08373047 4.59238281 -4.6875 5.125 C-5.72261719 5.47820313 -6.75773438 5.83140625 -7.82421875 6.1953125 C-11.02008266 7.00508859 -13.71897631 7.14757228 -17 7 C-14.69770126 4.69770126 -13.28931803 4.35567394 -10.1875 3.5 C-7.35527218 2.69896587 -4.72157217 1.88398841 -2 0.75 C-1.34 0.5025 -0.68 0.255 0 0 Z " fill="#678D91" transform="translate(605,671)"/>
<path d="M0 0 C4.42323682 0.58265272 7.5155864 2.26766211 11.3125 4.5625 C12.38113281 5.20316406 13.44976562 5.84382812 14.55078125 6.50390625 C15.35902344 6.99761719 16.16726563 7.49132812 17 8 C16.67 8.66 16.34 9.32 16 10 C9.8034553 8.53239731 4.93130534 4.88851943 0 1 C0 0.67 0 0.34 0 0 Z " fill="#6B9296" transform="translate(286,581)"/>
<path d="M0 0 C2.31 0 4.62 0 7 0 C7 0.33 7 0.66 7 1 C9.97 1.33 12.94 1.66 16 2 C16 2.33 16 2.66 16 3 C7.42 3 -1.16 3 -10 3 C-10 2.67 -10 2.34 -10 2 C-6.7 2 -3.4 2 0 2 C0 1.34 0 0.68 0 0 Z " fill="#8DB0B2" transform="translate(720,312)"/>
<path d="M0 0 C-0.33 0.66 -0.66 1.32 -1 2 C-3.87182587 2.47618812 -6.67120147 2.84167597 -9.5625 3.125 C-10.36880859 3.21136719 -11.17511719 3.29773438 -12.00585938 3.38671875 C-14.00304064 3.59943628 -16.00142737 3.80077855 -18 4 C-17.67 3.01 -17.34 2.02 -17 1 C-11.33357449 -0.22517308 -5.76291482 -0.09228867 0 0 Z " fill="#658D91" transform="translate(425,597)"/>
<path d="M0 0 C0.66 0.33 1.32 0.66 2 1 C-1.32928281 4.74544316 -5.37002367 8.01959997 -10 10 C-12.25 9.63671875 -12.25 9.63671875 -14 9 C-11.60569917 6.28857323 -9.12660605 4.92022387 -5.875 3.375 C-2.7170292 2.01068523 -2.7170292 2.01068523 0 0 Z " fill="#658D92" transform="translate(611,378)"/>
<path d="M0 0 C0.33 0.99 0.66 1.98 1 3 C-0.59576199 4.50893816 -2.20189911 6.00691076 -3.8125 7.5 C-4.70582031 8.3353125 -5.59914063 9.170625 -6.51953125 10.03125 C-9 12 -9 12 -12 12 C-8.27653164 7.57905197 -4.70478962 3.42166518 0 0 Z " fill="#668F94" transform="translate(485,562)"/>
<path d="M0 0 C0.66 0.33 1.32 0.66 2 1 C-0.72190812 3.79631108 -3.52058784 6.36764674 -6.5625 8.8125 C-7.32691406 9.43769531 -8.09132813 10.06289063 -8.87890625 10.70703125 C-9.57886719 11.13371094 -10.27882813 11.56039063 -11 12 C-11.99 11.67 -12.98 11.34 -14 11 C-12.23055495 9.53998252 -10.45939429 8.08204407 -8.6875 6.625 C-7.70136719 5.81289063 -6.71523438 5.00078125 -5.69921875 4.1640625 C-3 2 -3 2 0 0 Z " fill="#6B9598" transform="translate(294,453)"/>
<path d="M0 0 C0 4.0744433 -2.09169249 6.11745033 -4.5 9.1875 C-4.92925781 9.74630859 -5.35851562 10.30511719 -5.80078125 10.88085938 C-6.86078055 12.25885847 -7.92956188 13.63009407 -9 15 C-9.73828125 13.32421875 -9.73828125 13.32421875 -10 11 C-8.41796875 8.45703125 -8.41796875 8.45703125 -6.1875 5.8125 C-5.45917969 4.93207031 -4.73085938 4.05164063 -3.98046875 3.14453125 C-2 1 -2 1 0 0 Z " fill="#668D91" transform="translate(344,330)"/>
<path d="M0 0 C0.99 0.33 1.98 0.66 3 1 C2.27683594 1.68835938 2.27683594 1.68835938 1.5390625 2.390625 C0.90742188 3.00421875 0.27578125 3.6178125 -0.375 4.25 C-1.00148438 4.85328125 -1.62796875 5.4565625 -2.2734375 6.078125 C-3.97310161 7.9700588 -4.98459866 9.68201309 -6 12 C-6.99 11.67 -7.98 11.34 -9 11 C-6.62245212 6.50907623 -3.6393937 3.47764287 0 0 Z " fill="#6B9295" transform="translate(359,312)"/>
<path d="M0 0 C4.41684152 7.36140254 3.1027051 16.77218004 3 25 C2.67 25 2.34 25 2 25 C1.95101562 24.10796875 1.90203125 23.2159375 1.8515625 22.296875 C1.77679687 21.12640625 1.70203125 19.9559375 1.625 18.75 C1.55539062 17.58984375 1.48578125 16.4296875 1.4140625 15.234375 C1.03185387 12.2488208 0.48180279 10.55582263 -1 8 C-1.75 5.4375 -1.75 5.4375 -2 3 C-1.34 2.01 -0.68 1.02 0 0 Z " fill="#92B5BB" transform="translate(583,308)"/>
<path d="M0 0 C5.852795 0.51482919 11.3297637 1.45357192 17 3 C17 3.33 17 3.66 17 4 C10.93107371 4.25287193 5.83799592 3.69832609 0 2 C0 1.34 0 0.68 0 0 Z " fill="#6D9397" transform="translate(470,678)"/>
<path d="M0 0 C-0.639375 0.28875 -1.27875 0.5775 -1.9375 0.875 C-4.15206079 1.82823451 -4.15206079 1.82823451 -5 4 C-9.95 3.67 -14.9 3.34 -20 3 C-20 2.67 -20 2.34 -20 2 C-17.79248152 1.66131223 -15.58394089 1.32928311 -13.375 1 C-12.14523437 0.814375 -10.91546875 0.62875 -9.6484375 0.4375 C-6.3833973 0.04597484 -3.28287549 -0.08080924 0 0 Z " fill="#60888C" transform="translate(544,467)"/>
<path d="M0 0 C2.49552403 2.27597646 4.06622986 4.60721178 5.6875 7.5625 C6.12449219 8.34753906 6.56148438 9.13257813 7.01171875 9.94140625 C8 12 8 12 8 14 C4.63159336 12.627162 3.3079798 11.40170355 1.75 8.125 C1.41484375 7.44695313 1.0796875 6.76890625 0.734375 6.0703125 C0 4 0 4 0 0 Z " fill="#6C9395" transform="translate(408,625)"/>
<path d="M0 0 C0.33 0.99 0.66 1.98 1 3 C-0.01320313 3.90492188 -0.01320313 3.90492188 -1.046875 4.828125 C-1.93890625 5.62734375 -2.8309375 6.4265625 -3.75 7.25 C-4.63171875 8.03890625 -5.5134375 8.8278125 -6.421875 9.640625 C-8.67866165 11.70592672 -10.85739926 13.81735064 -13 16 C-13.66 15.67 -14.32 15.34 -15 15 C-10.05 10.05 -5.1 5.1 0 0 Z " fill="#578B98" transform="translate(680,599)"/>
<path d="M0 0 C-1.57789598 1.15330947 -3.1625482 2.29737927 -4.75 3.4375 C-5.63171875 4.07558594 -6.5134375 4.71367188 -7.421875 5.37109375 C-9.72699125 6.8275081 -11.34349572 7.55931821 -14 8 C-12.74539271 4.23617813 -11.47381388 3.74958162 -8.125 1.75 C-7.24070312 1.20859375 -6.35640625 0.6671875 -5.4453125 0.109375 C-3 -1 -3 -1 0 0 Z " fill="#678F93" transform="translate(471,578)"/>
<path d="M0 0 C0.33 0 0.66 0 1 0 C1.06058594 0.60328125 1.12117188 1.2065625 1.18359375 1.828125 C1.26738281 2.62734375 1.35117187 3.4265625 1.4375 4.25 C1.51871094 5.03890625 1.59992188 5.8278125 1.68359375 6.640625 C1.98068747 8.85599055 2.26486596 10.88765281 3 13 C5.42383077 14.16953416 5.42383077 14.16953416 8 15 C8.66 15.66 9.32 16.32 10 17 C6.67277559 16.4454626 3.8986087 15.75986957 1 14 C-0.38226016 11.23547967 -0.09525387 8.9538637 -0.0625 5.875 C-0.05347656 4.77929688 -0.04445313 3.68359375 -0.03515625 2.5546875 C-0.02355469 1.71164062 -0.01195312 0.86859375 0 0 Z " fill="#5C868A" transform="translate(354,519)"/>
<path d="M0 0 C0.66 0 1.32 0 2 0 C5.03901852 5.82478551 5.3540919 10.48208608 5 17 C4.67 17 4.34 17 4 17 C3.51933465 15.10454608 3.04053257 13.20861961 2.5625 11.3125 C2.29566406 10.25675781 2.02882813 9.20101563 1.75390625 8.11328125 C1.10102068 5.4171683 0.52058807 2.7242424 0 0 Z " fill="#658C8D" transform="translate(735,478)"/>
<path d="M0 0 C0.66 0.33 1.32 0.66 2 1 C-0.81332973 4.30979968 -4.141943 6.1048141 -8 8 C-10.22265625 7.609375 -10.22265625 7.609375 -12 7 C-10.04754815 5.80285445 -8.08785003 4.61751926 -6.125 3.4375 C-5.03445313 2.77621094 -3.94390625 2.11492187 -2.8203125 1.43359375 C-1.88960937 0.96050781 -0.95890625 0.48742187 0 0 Z " fill="#699195" transform="translate(609,439)"/>
<path d="M0 0 C3 1 3 1 4.1875 2.5625 C5.37040794 6.11122383 5.12443279 9.26701621 5 13 C4.01 13.33 3.02 13.66 2 14 C2.04125 12.80375 2.0825 11.6075 2.125 10.375 C2.13851708 6.57670047 1.42009753 3.55024382 0 0 Z " fill="#699194" transform="translate(772,426)"/>
<path d="M0 0 C-1.14656875 3.43970626 -1.84518278 3.8782229 -4.8125 5.75 C-5.49957031 6.19859375 -6.18664062 6.6471875 -6.89453125 7.109375 C-9.39934831 8.16892656 -10.49281235 7.92399724 -13 7 C-11.21190303 5.82786955 -9.41940875 4.66244474 -7.625 3.5 C-6.62726562 2.8503125 -5.62953125 2.200625 -4.6015625 1.53125 C-2 0 -2 0 0 0 Z " fill="#658E92" transform="translate(629,368)"/>
<path d="M0 0 C-2.14926381 2.39105598 -3.99036913 3.63278854 -7 4.75 C-7.680625 5.01296875 -8.36125 5.2759375 -9.0625 5.546875 C-11 6 -11 6 -14 5 C-13.34 5 -12.68 5 -12 5 C-12 4.34 -12 3.68 -12 3 C-4.71428571 -0.42857143 -4.71428571 -0.42857143 0 0 Z " fill="#699194" transform="translate(455,587)"/>
<path d="M0 0 C-1.46301048 2.92602095 -3.41022764 3.09705209 -6.4375 4.1875 C-7.42621094 4.55230469 -8.41492188 4.91710937 -9.43359375 5.29296875 C-12 6 -12 6 -14 5 C-9.55595403 1.37892551 -5.78565632 -0.33060893 0 0 Z " fill="#6A9295" transform="translate(553,508)"/>
<path d="M0 0 C0.33 0.66 0.66 1.32 1 2 C-0.07674702 4.28258633 -1.19546116 6.4356434 -2.4375 8.625 C-2.77587891 9.23601562 -3.11425781 9.84703125 -3.46289062 10.4765625 C-4.30146192 11.988353 -5.14982577 13.49470399 -6 15 C-7.03274898 12.31485266 -7.07566569 11.2078412 -6.07421875 8.45703125 C-5.61660156 7.58433594 -5.15898437 6.71164062 -4.6875 5.8125 C-4.23761719 4.93207031 -3.78773438 4.05164063 -3.32421875 3.14453125 C-2 1 -2 1 0 0 Z " fill="#668D90" transform="translate(324,359)"/>
<path d="M0 0 C0 0.66 0 1.32 0 2 C1.98 2 3.96 2 6 2 C5.67 2.66 5.34 3.32 5 4 C-0.61 3.34 -6.22 2.68 -12 2 C-12 1.67 -12 1.34 -12 1 C-7.95858806 0.36605303 -4.0934693 -0.12404452 0 0 Z " fill="#7CA3A8" transform="translate(490,468)"/>
<path d="M0 0 C5.4389165 -0.21755666 9.87080814 -0.10428384 15 2 C15 2.33 15 2.66 15 3 C9.84828377 3.09038099 5.08086796 2.84681133 0 2 C0 1.34 0 0.68 0 0 Z " fill="#6A8F92" transform="translate(704,407)"/>
<path d="M0 0 C-1.78524649 1.19713017 -3.5784028 2.38247279 -5.375 3.5625 C-6.87160156 4.55443359 -6.87160156 4.55443359 -8.3984375 5.56640625 C-9.25695312 6.03949219 -10.11546875 6.51257813 -11 7 C-11.66 6.67 -12.32 6.34 -13 6 C-5.74729569 -1.78994167 -5.74729569 -1.78994167 0 0 Z " fill="#648C90" transform="translate(594,372)"/>
<path d="M0 0 C0.33 0.99 0.66 1.98 1 3 C-1.64 5.97 -4.28 8.94 -7 12 C-7.66 11.67 -8.32 11.34 -9 11 C-6.03 7.37 -3.06 3.74 0 0 Z " fill="#668E91" transform="translate(705,596)"/>
<path d="M0 0 C0.66 0.33 1.32 0.66 2 1 C-0.79196011 4.28465896 -4.23196817 6.01321958 -8 8 C-8.66 8 -9.32 8 -10 8 C-8.7820245 4.34607349 -7.85603494 4.04168301 -4.5625 2.25 C-3.75941406 1.80140625 -2.95632813 1.3528125 -2.12890625 0.890625 C-1.07509766 0.44976562 -1.07509766 0.44976562 0 0 Z " fill="#689094" transform="translate(623,431)"/>
<path d="M0 0 C-1.6188996 1.03048037 -3.24532489 2.04914678 -4.875 3.0625 C-5.77992188 3.63097656 -6.68484375 4.19945312 -7.6171875 4.78515625 C-8.40351562 5.18605469 -9.18984375 5.58695312 -10 6 C-10.66 5.67 -11.32 5.34 -12 5 C-8.42937391 1.05351854 -5.33493882 -1.67637143 0 0 Z " fill="#679195" transform="translate(576,383)"/>
<path d="M0 0 C0.93423645 3.01031744 1.04449911 3.86650268 0 7 C-0.66 7 -1.32 7 -2 7 C-2.66 8.65 -3.32 10.3 -4 12 C-4.66 12 -5.32 12 -6 12 C-4.68139111 7.38486888 -2.78644563 3.90102388 0 0 Z " fill="#698F92" transform="translate(724,567)"/>
<path d="M0 0 C3.63491543 1.21163848 3.95246215 2.10771062 5.75 5.375 C6.19859375 6.16648437 6.6471875 6.95796875 7.109375 7.7734375 C8 10 8 10 7 13 C5.82786955 11.21190303 4.66244474 9.41940875 3.5 7.625 C2.8503125 6.62726562 2.200625 5.62953125 1.53125 4.6015625 C0 2 0 2 0 0 Z " fill="#648C8F" transform="translate(260,551)"/>
<path d="M0 0 C3.62107449 4.44404597 5.33060893 8.21434368 5 14 C3 13 3 13 2.1484375 11.07421875 C1.89320313 10.28660156 1.63796875 9.49898437 1.375 8.6875 C0.98441406 7.51767578 0.98441406 7.51767578 0.5859375 6.32421875 C0 4 0 4 0 0 Z " fill="#658C8F" transform="translate(255,536)"/>
<path d="M0 0 C-2.46301423 2.46301423 -4.27360036 2.76766521 -7.625 3.625 C-9.12933594 4.01558594 -9.12933594 4.01558594 -10.6640625 4.4140625 C-11.43492187 4.60742188 -12.20578125 4.80078125 -13 5 C-12 2 -12 2 -9.875 0.8125 C-6.48581699 -0.14531259 -3.50528139 -0.13746202 0 0 Z " fill="#668E91" transform="translate(519,520)"/>
<path d="M0 0 C-2.90558095 2.47512452 -5.13948478 3.80697424 -9 4 C-11.3125 2.5625 -11.3125 2.5625 -13 1 C-8.59085217 -0.10228696 -4.51617599 -0.07654536 0 0 Z M-13 4 C-9 5 -9 5 -9 5 Z " fill="#79A2A7" transform="translate(710,315)"/>
<path d="M0 0 C0.66 0.33 1.32 0.66 2 1 C-4.07792208 7.24675325 -4.07792208 7.24675325 -7 9 C-7.99 8.67 -8.98 8.34 -10 8 C-6.7 5.36 -3.4 2.72 0 0 Z " fill="#62888C" transform="translate(665,636)"/>
<path d="M0 0 C2.52480693 2.52480693 2.55738633 4.13823034 3.125 7.625 C3.29257812 8.62789062 3.46015625 9.63078125 3.6328125 10.6640625 C3.75398438 11.43492187 3.87515625 12.20578125 4 13 C3.34 13 2.68 13 2 13 C-0.24828052 8.50343896 -0.16682272 4.92127034 0 0 Z " fill="#668D90" transform="translate(404,611)"/>
<path d="M0 0 C0.66 0.33 1.32 0.66 2 1 C0.59921602 2.53547475 -0.82120903 4.05305148 -2.25 5.5625 C-3.43335938 6.83287109 -3.43335938 6.83287109 -4.640625 8.12890625 C-7 10 -7 10 -9.296875 9.77734375 C-10.13992188 9.39255859 -10.13992188 9.39255859 -11 9 C-9.93458984 8.15115234 -9.93458984 8.15115234 -8.84765625 7.28515625 C-7.92855469 6.55167969 -7.00945312 5.81820312 -6.0625 5.0625 C-5.14597656 4.33160156 -4.22945313 3.60070312 -3.28515625 2.84765625 C-1.59148731 1.48061289 -1.59148731 1.48061289 0 0 Z " fill="#C0D9D6" transform="translate(488,584)"/>
<path d="M0 0 C3.2645028 3.2645028 3.93236055 7.41047299 4.125 11.9375 C4.08375 12.618125 4.0425 13.29875 4 14 C3.01 14 2.02 14 1 14 C0.67 9.38 0.34 4.76 0 0 Z " fill="#6F9699" transform="translate(240,545)"/>
<path d="M0 0 C0.33 0.99 0.66 1.98 1 3 C1.66 3.33 2.32 3.66 3 4 C1.56274129 4.16873478 0.12518162 4.33490737 -1.3125 4.5 C-2.11300781 4.5928125 -2.91351563 4.685625 -3.73828125 4.78125 C-6 5 -6 5 -9 5 C-6.47043472 1.9083091 -3.77545388 1.09068668 0 0 Z " fill="#668E92" transform="translate(316,508)"/>
<path d="M0 0 C-4.95 2.97 -4.95 2.97 -10 6 C-10.33 5.01 -10.66 4.02 -11 3 C-4.5 -1.125 -4.5 -1.125 0 0 Z " fill="#689297" transform="translate(590,490)"/>
<path d="M0 0 C-1.09987776 3.29963329 -1.45586748 3.61064772 -4.3125 5.25 C-4.90675781 5.60578125 -5.50101563 5.9615625 -6.11328125 6.328125 C-8.4491564 7.15994803 -9.69274206 6.7945524 -12 6 C-10.37829621 4.99466333 -8.75252763 3.99588093 -7.125 3 C-5.76761719 2.1646875 -5.76761719 2.1646875 -4.3828125 1.3125 C-2 0 -2 0 0 0 Z " fill="#678E92" transform="translate(596,389)"/>
<path d="M0 0 C0.66 0.33 1.32 0.66 2 1 C2 1.33 2 1.66 2 2 C2.66 2.33 3.32 2.66 4 3 C1.6875 5.0625 1.6875 5.0625 -1 7 C-1.99 6.67 -2.98 6.34 -4 6 C-2.84826645 3.53199953 -1.95216435 1.95216435 0 0 Z " fill="#78A2A9" transform="translate(307,511)"/>
<path d="M0 0 C5.03985731 0.44469329 7.37634988 2.71343362 11 6 C10.01 6.33 9.02 6.66 8 7 C5.95703125 5.8203125 5.95703125 5.8203125 3.8125 4.125 C3.09707031 3.57070313 2.38164063 3.01640625 1.64453125 2.4453125 C1.10183594 1.96835937 0.55914063 1.49140625 0 1 C0 0.67 0 0.34 0 0 Z " fill="#70979B" transform="translate(745,422)"/>
<path d="M0 0 C-2.34914492 2.34914492 -3.95679446 2.73140357 -7.125 3.625 C-8.49011719 4.01558594 -8.49011719 4.01558594 -9.8828125 4.4140625 C-10.58148437 4.60742188 -11.28015625 4.80078125 -12 5 C-11 2 -11 2 -8.8125 0.8125 C-5.74609689 -0.07334979 -3.17561845 -0.14770318 0 0 Z " fill="#668E92" transform="translate(655,398)"/>
<path d="M0 0 C0.66 0 1.32 0 2 0 C1.55123384 1.64846769 1.09069512 3.29373455 0.625 4.9375 C0.36976563 5.85402344 0.11453125 6.77054688 -0.1484375 7.71484375 C-1 10 -1 10 -3 11 C-2.53199289 6.94393835 -2.12046792 3.53411321 0 0 Z " fill="#679093" transform="translate(500,531)"/>
<path d="M0 0 C0.33 0 0.66 0 1 0 C0.03644647 9.41002278 0.03644647 9.41002278 -1 14 C-1.33 14 -1.66 14 -2 14 C-3.55577239 8.34264585 -2.24281523 5.20333134 0 0 Z " fill="#6F9497" transform="translate(258,495)"/>
<path d="M0 0 C0.33 0.99 0.66 1.98 1 3 C-0.14453125 4.82421875 -0.14453125 4.82421875 -1.8125 6.6875 C-2.35519531 7.31011719 -2.89789063 7.93273437 -3.45703125 8.57421875 C-5 10 -5 10 -7 10 C-5.33248852 6.05860922 -2.77289351 3.2107188 0 0 Z " fill="#678F94" transform="translate(275,469)"/>
<path d="M0 0 C1.60568666 0.28317926 3.20952047 0.57687791 4.8125 0.875 C6.15248047 1.11863281 6.15248047 1.11863281 7.51953125 1.3671875 C10 2 10 2 13 4 C11.741875 4.020625 10.48375 4.04125 9.1875 4.0625 C8.47980469 4.07410156 7.77210938 4.08570313 7.04296875 4.09765625 C5 4 5 4 2 3 C2 2.34 2 1.68 2 1 C1.34 0.67 0.68 0.34 0 0 Z " fill="#648B8F" transform="translate(393,443)"/>
<path d="M0 0 C0.33 0 0.66 0 1 0 C1.0825 1.010625 1.165 2.02125 1.25 3.0625 C1.84006068 7.37786916 3.68916002 10.34738197 6 14 C2.83884224 12.63016497 2.0072908 12.0109362 0 9 C-0.1953125 6.73828125 -0.1953125 6.73828125 -0.125 4.3125 C-0.10695313 3.50425781 -0.08890625 2.69601562 -0.0703125 1.86328125 C-0.04710937 1.24839844 -0.02390625 0.63351562 0 0 Z " fill="#82A5A9" transform="translate(305,401)"/>
<path d="M0 0 C0.94875 0.04125 1.8975 0.0825 2.875 0.125 C2.875 0.785 2.875 1.445 2.875 2.125 C4.855 2.125 6.835 2.125 8.875 2.125 C8.875 2.455 8.875 2.785 8.875 3.125 C4.0416528 3.20833357 -0.36192563 3.07761487 -5.125 2.125 C-3.125 0.125 -3.125 0.125 0 0 Z " fill="#7EA2A6" transform="translate(498.125,682.875)"/>
<path d="M0 0 C3.31562557 0.55260426 6.15062207 1.16825705 9 3 C9.33 3.99 9.66 4.98 10 6 C5.56909529 4.79157144 3.01887244 3.48331435 0 0 Z " fill="#658D91" transform="translate(388,631)"/>
<path d="M0 0 C3.125 0.375 3.125 0.375 6 1 C1.375 5 1.375 5 -2 5 C-2 2 -2 2 0 0 Z " fill="#7BA5AB" transform="translate(505,523)"/>
<path d="M0 0 C0.33 0.66 0.66 1.32 1 2 C-2 4 -2 4 -5 4 C-5 3.34 -5 2.68 -5 2 C-5.99 1.67 -6.98 1.34 -8 1 C-3.375 -1.125 -3.375 -1.125 0 0 Z " fill="#7AA2A8" transform="translate(563,444)"/>
<path d="M0 0 C2.64 0 5.28 0 8 0 C7.67 1.32 7.34 2.64 7 4 C4.69 3.67 2.38 3.34 0 3 C0 2.01 0 1.02 0 0 Z " fill="#6B9193" transform="translate(765,440)"/>
<path d="M0 0 C1.60495567 0.11442461 3.20898119 0.24194694 4.8125 0.375 C5.70582031 0.44460938 6.59914063 0.51421875 7.51953125 0.5859375 C10 1 10 1 13 3 C11.58430936 3.08167446 10.16723195 3.13949698 8.75 3.1875 C7.96109375 3.22230469 7.1721875 3.25710938 6.359375 3.29296875 C3.48287032 2.93578688 2.15423231 1.88248282 0 0 Z " fill="#5D8689" transform="translate(378,440)"/>
<path d="M0 0 C-0.99 0.33 -1.98 0.66 -3 1 C-3 1.66 -3 2.32 -3 3 C-6.3 3 -9.6 3 -13 3 C-8.28204509 0.64102255 -5.23723208 -0.14547867 0 0 Z " fill="#5F8588" transform="translate(576,681)"/>
<path d="M0 0 C-2.51699845 2.51699845 -4.57554146 3.10964078 -8 4 C-10.375 3.625 -10.375 3.625 -12 3 C-7.77050005 0.58314288 -4.87664009 -0.34833144 0 0 Z " fill="#618A8D" transform="translate(535,515)"/>
<path d="M0 0 C-1.28524261 0.86380259 -2.57842419 1.71580369 -3.875 2.5625 C-4.59429688 3.03816406 -5.31359375 3.51382812 -6.0546875 4.00390625 C-6.69664062 4.33261719 -7.33859375 4.66132813 -8 5 C-8.66 4.67 -9.32 4.34 -10 4 C-4.75 -1.425 -4.75 -1.425 0 0 Z " fill="#668E92" transform="translate(637,459)"/>
<path d="M0 0 C-2.6855594 2.6855594 -5.37621328 3.06049974 -9 4 C-9.33 3.01 -9.66 2.02 -10 1 C-6.1496895 -1.56687367 -4.41430237 -0.83288724 0 0 Z " fill="#78A3AA" transform="translate(645,456)"/>
<path d="M0 0 C1.60495567 0.11442461 3.20898119 0.24194694 4.8125 0.375 C5.70582031 0.44460937 6.59914063 0.51421875 7.51953125 0.5859375 C10 1 10 1 13 3 C11.35 3.33 9.7 3.66 8 4 C8 3.34 8 2.68 8 2 C5.69 2.33 3.38 2.66 1 3 C0.67 2.01 0.34 1.02 0 0 Z " fill="#81A5A9" transform="translate(512,251)"/>
<path d="M0 0 C2.07384637 2.28176413 2.98397191 3.44323483 3.07421875 6.578125 C2.94660156 7.45984375 2.81898438 8.3415625 2.6875 9.25 C2.50767578 10.58804688 2.50767578 10.58804688 2.32421875 11.953125 C2.21722656 12.62859375 2.11023438 13.3040625 2 14 C1.67 14 1.34 14 1 14 C0.04738513 9.23692563 -0.08333357 4.8333472 0 0 Z " fill="#7FA4A8" transform="translate(236,528)"/>
<path d="M0 0 C0.66 0.33 1.32 0.66 2 1 C-0.64 2.98 -3.28 4.96 -6 7 C-6.66 6.67 -7.32 6.34 -8 6 C-5.54080489 3.3651481 -3.42227589 1.25483449 0 0 Z " fill="#5E888C" transform="translate(622,466)"/>
<path d="M0 0 C2.97 0.33 5.94 0.66 9 1 C9.33 1.99 9.66 2.98 10 4 C6.44219804 3.39009109 3.3171411 2.4216319 0 1 C0 0.67 0 0.34 0 0 Z " fill="#658C90" transform="translate(730,396)"/>
<path d="M0 0 C-3.1254959 2.64465038 -6.08788267 3.84414715 -10 5 C-9 2 -9 2 -7.25 0.8125 C-4.70039426 -0.10819096 -2.69076919 -0.14948718 0 0 Z " fill="#638B8F" transform="translate(668,327)"/>
<path d="M0 0 C-1 3 -1 3 -2.8125 4.25 C-5.33943414 5.11637742 -6.52221994 4.88492145 -9 4 C-2.25 0 -2.25 0 0 0 Z " fill="#678D91" transform="translate(645,652)"/>
<path d="M0 0 C4.81449408 0.48144941 7.60171741 0.8008587 12 3 C9.03 3 6.06 3 3 3 C3 2.34 3 1.68 3 1 C2.01 0.67 1.02 0.34 0 0 Z " fill="#5D8488" transform="translate(321,615)"/>
<path d="M0 0 C0.33 0.99 0.66 1.98 1 3 C-0.8125 6.1875 -0.8125 6.1875 -3 9 C-3.66 9 -4.32 9 -5 9 C-3.7508258 5.54074837 -2.32472205 2.85306797 0 0 Z " fill="#678E91" transform="translate(715,582)"/>
<path d="M0 0 C0.66 0.99 1.32 1.98 2 3 C0.741875 3.04125 -0.51625 3.0825 -1.8125 3.125 C-2.52019531 3.14820313 -3.22789062 3.17140625 -3.95703125 3.1953125 C-6 3 -6 3 -9 1 C-5.73842267 -0.08719244 -3.41589896 -0.29071481 0 0 Z " fill="#83A9AF" transform="translate(317,534)"/>
<path d="M0 0 C0 0.99 0 1.98 0 3 C-2.31 3.33 -4.62 3.66 -7 4 C-6.34 3.34 -5.68 2.68 -5 2 C-5.66 1.34 -6.32 0.68 -7 0 C-3.98968256 -0.93423645 -3.13349732 -1.04449911 0 0 Z " fill="#7CA6AD" transform="translate(554,447)"/>
<path d="M0 0 C4.875 4.625 4.875 4.625 6 8 C2.83884224 6.63016497 2.0072908 6.0109362 0 3 C0 2.01 0 1.02 0 0 Z " fill="#6A9094" transform="translate(757,430)"/>
<path d="M0 0 C-1.625 1.5625 -1.625 1.5625 -4 3 C-7.25 2.6875 -7.25 2.6875 -10 2 C-6.86358686 -1.13641314 -4.14410883 -1.38136961 0 0 Z " fill="#BAD5D2" transform="translate(543,418)"/>
<path d="M0 0 C5.53846154 0.61538462 5.53846154 0.61538462 7.875 2.5625 C8.431875 3.2740625 8.431875 3.2740625 9 4 C8.01 4.495 8.01 4.495 7 5 C4.5249829 3.88568235 2.32116581 2.41849022 0 1 C0 0.67 0 0.34 0 0 Z " fill="#678F93" transform="translate(741,400)"/>
<path d="M0 0 C0.66 0.33 1.32 0.66 2 1 C0.02579865 3.52259061 -0.96745642 3.9929808 -4.1875 4.6875 C-5.5796875 4.8421875 -5.5796875 4.8421875 -7 5 C-4.88437775 2.67281553 -2.94982021 1.14186589 0 0 Z " fill="#638B8F" transform="translate(655,351)"/>
<path d="M0 0 C5.53846154 0.61538462 5.53846154 0.61538462 7.875 2.5625 C8.431875 3.2740625 8.431875 3.2740625 9 4 C8.01 4.495 8.01 4.495 7 5 C4.5249829 3.88568235 2.32116581 2.41849022 0 1 C0 0.67 0 0.34 0 0 Z " fill="#62898D" transform="translate(539,260)"/>
<path d="M0 0 C2.64465038 3.1254959 3.84414715 6.08788267 5 10 C4.01 9.67 3.02 9.34 2 9 C1.26953125 6.93359375 1.26953125 6.93359375 0.8125 4.4375 C0.65394531 3.61121094 0.49539062 2.78492188 0.33203125 1.93359375 C0.16767578 0.97646484 0.16767578 0.97646484 0 0 Z " fill="#62888B" transform="translate(243,554)"/>
<path d="M0 0 C3.63 0.33 7.26 0.66 11 1 C11 1.33 11 1.66 11 2 C5.06 2.495 5.06 2.495 -1 3 C-0.67 2.01 -0.34 1.02 0 0 Z " fill="#86ABAF" transform="translate(330,439)"/>
<path d="M0 0 C0.66 0.33 1.32 0.66 2 1 C-0.52788007 3.79872437 -2.20411134 5.45773019 -6 6 C-5 3 -5 3 -2.5625 1.25 C-1.716875 0.8375 -0.87125 0.425 0 0 Z " fill="#6C9498" transform="translate(596,426)"/>
<path d="M0 0 C-0.33 0.66 -0.66 1.32 -1 2 C-3.64860427 2.59355614 -6.29197322 2.74209269 -9 3 C-8 1 -8 1 -5.0625 -0.1875 C-2 -1 -2 -1 0 0 Z " fill="#699094" transform="translate(661,414)"/>
<path d="M0 0 C0.99 0.33 1.98 0.66 3 1 C0.64031256 3.09749995 -0.54616994 3.96905704 -3.75 4.1875 C-4.86375 4.0946875 -4.86375 4.0946875 -6 4 C-4.03617993 2.49440461 -2.21736634 1.10868317 0 0 Z " fill="#628B8F" transform="translate(614,667)"/>
<path d="M0 0 C-1.15173355 2.46800047 -2.04783565 4.04783565 -4 6 C-4.99 5.67 -5.98 5.34 -7 5 C-2.25 0 -2.25 0 0 0 Z " fill="#62898C" transform="translate(685,620)"/>
<path d="M0 0 C4.875 4.75 4.875 4.75 6 7 C4.125 6.6875 4.125 6.6875 2 6 C0 3 0 3 0 0 Z " fill="#658B8F" transform="translate(255,574)"/>
<path d="M0 0 C0.66 0.33 1.32 0.66 2 1 C-0.57404971 4.86107457 -2.61020259 4.94319692 -7 6 C-4.74259377 3.66475218 -2.7194239 1.81294927 0 0 Z " fill="#80A6AA" transform="translate(626,462)"/>
<path d="M0 0 C0.66 0.33 1.32 0.66 2 1 C-0.83430453 4.2542015 -2.68607774 5.5206753 -7 6 C-4.74259377 3.66475218 -2.7194239 1.81294927 0 0 Z " fill="#61898C" transform="translate(294,453)"/>
<path d="M0 0 C0 0.66 0 1.32 0 2 C-2.35438733 3.42944945 -3.48032433 4.08661261 -6.25 3.625 C-6.8275 3.41875 -7.405 3.2125 -8 3 C-3.375 0 -3.375 0 0 0 Z " fill="#699195" transform="translate(595,448)"/>
<path d="M0 0 C0.66 0.66 1.32 1.32 2 2 C-1.96 1.67 -5.92 1.34 -10 1 C-10 0.67 -10 0.34 -10 0 C-3.42391304 -1.3451087 -3.42391304 -1.3451087 0 0 Z " fill="#87ABAE" transform="translate(378,440)"/>
<path d="M0 0 C-4.625 3 -4.625 3 -8 3 C-8 2.34 -8 1.68 -8 1 C-4.93251126 -0.86240388 -3.40254489 -1.2151946 0 0 Z " fill="#678F93" transform="translate(581,437)"/>
<path d="M0 0 C1 3 1 3 -0.4375 6.1875 C-1.2109375 7.5796875 -1.2109375 7.5796875 -2 9 C-2.33 9 -2.66 9 -3 9 C-2.25 2.25 -2.25 2.25 0 0 Z " fill="#60888B" transform="translate(314,379)"/>
<path d="M0 0 C0.33 0.66 0.66 1.32 1 2 C-0.98 4.97 -0.98 4.97 -3 8 C-3.75 6.25 -3.75 6.25 -4 4 C-2.0625 1.75 -2.0625 1.75 0 0 Z " fill="#628B8F" transform="translate(330,349)"/>
<path d="M0 0 C2.31 0 4.62 0 7 0 C7 0.33 7 0.66 7 1 C4.69 1 2.38 1 0 1 C0 0.67 0 0.34 0 0 Z " fill="#7EA3A4" transform="translate(728,312)"/>
<path d="M0 0 C2.31 0 4.62 0 7 0 C7 0.33 7 0.66 7 1 C4.69 1 2.38 1 0 1 C0 0.67 0 0.34 0 0 Z " fill="#82A6A9" transform="translate(480,248)"/>
<path d="M0 0 C1.98 0.99 1.98 0.99 4 2 C3.01 2.33 2.02 2.66 1 3 C0.67 2.01 0.34 1.02 0 0 Z " fill="#80A4A9" transform="translate(306,613)"/>
<path d="M0 0 C0.66 1.32 1.32 2.64 2 4 C1.34 3.67 0.68 3.34 0 3 C0 2.01 0 1.02 0 0 Z " fill="#81A7AC" transform="translate(403,620)"/>
<path d="M0 0 C1.65 0 3.3 0 5 0 C5 0.33 5 0.66 5 1 C3.35 1 1.7 1 0 1 C0 0.67 0 0.34 0 0 Z " fill="#81A5A8" transform="translate(711,312)"/>
<path d="M0 0 C1.65 0 3.3 0 5 0 C5 0.33 5 0.66 5 1 C3.35 1 1.7 1 0 1 C0 0.67 0 0.34 0 0 Z " fill="#83A7AA" transform="translate(501,248)"/>
<path d="M0 0 C4 1 4 1 4 1 Z " fill="#80A4A8" transform="translate(482,684)"/>
<path d="M0 0 C0.66 0 1.32 0 2 0 C1.67 0.99 1.34 1.98 1 3 C0.67 2.01 0.34 1.02 0 0 Z " fill="#81A6AB" transform="translate(335,621)"/>
<path d="M0 0 C4 1 4 1 4 1 Z " fill="#85ABB2" transform="translate(416,454)"/>
<path d="M0 0 C0.99 0.495 0.99 0.495 2 1 C1.01 1.495 1.01 1.495 0 2 C0 1.34 0 0.68 0 0 Z " fill="#7DA2A7" transform="translate(248,573)"/>
<path d="M0 0 C0.66 0 1.32 0 2 0 C1.67 0.66 1.34 1.32 1 2 C0.67 1.34 0.34 0.68 0 0 Z " fill="#7EA2A7" transform="translate(235,542)"/>
<path d="" fill="#82A8AC" transform="translate(0,0)"/>
<path d="M0 0 C3 1 3 1 3 1 Z " fill="#85ABB0" transform="translate(474,470)"/>
<path d="M0 0 C3 1 3 1 3 1 Z " fill="#85ACB1" transform="translate(457,467)"/>
<path d="M0 0 C3 1 3 1 3 1 Z " fill="#86ACAF" transform="translate(632,456)"/>
<path d="M0 0 C3 1 3 1 3 1 Z " fill="#84ABB0" transform="translate(408,451)"/>
<path d="" fill="#83A7AB" transform="translate(0,0)"/>
<path d="M0 0 C3 1 3 1 3 1 Z " fill="#84AAAD" transform="translate(660,392)"/>
<path d="M0 0 C2 1 2 1 2 1 Z " fill="#83A8AD" transform="translate(496,686)"/>
<path d="M0 0 C2 1 2 1 2 1 Z " fill="#81A6AB" transform="translate(489,685)"/>
<path d="M0 0 C2 1 2 1 2 1 Z " fill="#82A6AB" transform="translate(426,669)"/>
<path d="" fill="#85AAAE" transform="translate(0,0)"/>
<path d="M0 0 C2 1 2 1 2 1 Z " fill="#80A5A9" transform="translate(339,622)"/>
<path d="M0 0 C2 1 2 1 2 1 Z " fill="#82A7AC" transform="translate(401,616)"/>
<path d="" fill="#85ABAE" transform="translate(0,0)"/>
<path d="" fill="#81A3A8" transform="translate(0,0)"/>
<path d="" fill="#7FA4A8" transform="translate(0,0)"/>
<path d="" fill="#80A5A9" transform="translate(0,0)"/>
<path d="M0 0 C2 1 2 1 2 1 Z " fill="#87ACB0" transform="translate(366,539)"/>
<path d="" fill="#7DA2A6" transform="translate(0,0)"/>
<path d="" fill="#83A9AC" transform="translate(0,0)"/>
<path d="" fill="#7FA3A8" transform="translate(0,0)"/>
<path d="" fill="#86ADAE" transform="translate(0,0)"/>
<path d="" fill="#85ACAF" transform="translate(0,0)"/>
<path d="M0 0 C2 1 2 1 2 1 Z " fill="#86ACB0" transform="translate(426,513)"/>
<path d="M0 0 C2 1 2 1 2 1 Z " fill="#7EA4A8" transform="translate(241,482)"/>
<path d="" fill="#81A7AB" transform="translate(0,0)"/>
<path d="M0 0 C2 1 2 1 2 1 Z " fill="#84A9AF" transform="translate(483,471)"/>
<path d="M0 0 C2 1 2 1 2 1 Z " fill="#85ACB2" transform="translate(465,469)"/>
<path d="" fill="#85ABB1" transform="translate(0,0)"/>
<path d="M0 0 C2 1 2 1 2 1 Z " fill="#84ACB0" transform="translate(626,457)"/>
<path d="M0 0 C2 1 2 1 2 1 Z " fill="#87ACB2" transform="translate(420,455)"/>
<path d="M0 0 C2 1 2 1 2 1 Z " fill="#87ADB3" transform="translate(391,446)"/>
<path d="M0 0 C2 1 2 1 2 1 Z " fill="#7FA4A8" transform="translate(768,445)"/>
<path d="M0 0 C2 1 2 1 2 1 Z " fill="#88ADB4" transform="translate(386,445)"/>
<path d="M0 0 C2 1 2 1 2 1 Z " fill="#87ADB0" transform="translate(581,432)"/>
<path d="M0 0 C2 1 2 1 2 1 Z " fill="#8EB2B6" transform="translate(311,424)"/>
<path d="M0 0 C2 1 2 1 2 1 Z " fill="#7FA6AB" transform="translate(713,411)"/>
<path d="M0 0 C2 1 2 1 2 1 Z " fill="#85ACAF" transform="translate(639,400)"/>
<path d="M0 0 C2 1 2 1 2 1 Z " fill="#83A9AD" transform="translate(708,388)"/>
<path d="M0 0 C2 1 2 1 2 1 Z " fill="#82A9AC" transform="translate(712,334)"/>
<path d="M0 0 C2 1 2 1 2 1 Z " fill="#83A7AA" transform="translate(728,333)"/>
<path d="M0 0 C2 1 2 1 2 1 Z " fill="#7DA1A3" transform="translate(717,312)"/>
<path d="M0 0 C2 1 2 1 2 1 Z " fill="#82A7A9" transform="translate(374,296)"/>
<path d="M0 0 C2 1 2 1 2 1 Z " fill="#84A8AC" transform="translate(408,272)"/>
<path d="M0 0 C2 1 2 1 2 1 Z " fill="#82A5A7" transform="translate(445,256)"/>
<path d="" fill="#83A7AA" transform="translate(0,0)"/>
<path d="M0 0 C2 1 2 1 2 1 Z " fill="#7EA3A6" transform="translate(488,248)"/>
<path d="" fill="#4B5450" transform="translate(0,0)"/>
<path d="" fill="#545D5A" transform="translate(0,0)"/>
<path d="" fill="#80A6AC" transform="translate(0,0)"/>
<path d="" fill="#81A7AB" transform="translate(0,0)"/>
<path d="" fill="#81A5A9" transform="translate(0,0)"/>
<path d="" fill="#7FA5A9" transform="translate(0,0)"/>
<path d="" fill="#82A6AB" transform="translate(0,0)"/>
<path d="" fill="#81A6AA" transform="translate(0,0)"/>
<path d="" fill="#7DA3A8" transform="translate(0,0)"/>
<path d="" fill="#7FA4A8" transform="translate(0,0)"/>
<path d="" fill="#81A5AC" transform="translate(0,0)"/>
<path d="" fill="#81A7AA" transform="translate(0,0)"/>
<path d="" fill="#7EA2A6" transform="translate(0,0)"/>
<path d="" fill="#84A5AA" transform="translate(0,0)"/>
<path d="" fill="#80A6AB" transform="translate(0,0)"/>
<path d="" fill="#81A6A8" transform="translate(0,0)"/>
<path d="" fill="#82A5A8" transform="translate(0,0)"/>
<path d="" fill="#81A3A9" transform="translate(0,0)"/>
<path d="" fill="#81A5A9" transform="translate(0,0)"/>
<path d="" fill="#82A6A8" transform="translate(0,0)"/>
<path d="" fill="#7EA2A7" transform="translate(0,0)"/>
<path d="" fill="#81A5AA" transform="translate(0,0)"/>
<path d="" fill="#7EA5A9" transform="translate(0,0)"/>
<path d="" fill="#81A8AA" transform="translate(0,0)"/>
<path d="" fill="#86ABAE" transform="translate(0,0)"/>
<path d="" fill="#7FA4AB" transform="translate(0,0)"/>
<path d="" fill="#84A9AE" transform="translate(0,0)"/>
<path d="" fill="#7FA5A8" transform="translate(0,0)"/>
<path d="" fill="#81A6AA" transform="translate(0,0)"/>
<path d="" fill="#81A7A9" transform="translate(0,0)"/>
<path d="" fill="#82A9AD" transform="translate(0,0)"/>
<path d="" fill="#82A7AA" transform="translate(0,0)"/>
<path d="" fill="#82A8AB" transform="translate(0,0)"/>
<path d="" fill="#84A8AF" transform="translate(0,0)"/>
<path d="" fill="#7FA4A7" transform="translate(0,0)"/>
<path d="" fill="#82A8AE" transform="translate(0,0)"/>
<path d="" fill="#81A5A8" transform="translate(0,0)"/>
<path d="" fill="#7FA5A9" transform="translate(0,0)"/>
<path d="" fill="#81A7A9" transform="translate(0,0)"/>
<path d="" fill="#86ABB0" transform="translate(0,0)"/>
<path d="" fill="#88ADB0" transform="translate(0,0)"/>
<path d="" fill="#82A6AA" transform="translate(0,0)"/>
<path d="" fill="#85A7AC" transform="translate(0,0)"/>
<path d="" fill="#84ABAE" transform="translate(0,0)"/>
<path d="" fill="#84A8AB" transform="translate(0,0)"/>
<path d="" fill="#83A9AB" transform="translate(0,0)"/>
<path d="" fill="#7EA1A8" transform="translate(0,0)"/>
<path d="" fill="#82A9AC" transform="translate(0,0)"/>
<path d="" fill="#81A7AD" transform="translate(0,0)"/>
<path d="" fill="#85AEB0" transform="translate(0,0)"/>
<path d="" fill="#81A8AB" transform="translate(0,0)"/>
<path d="" fill="#7EA3A7" transform="translate(0,0)"/>
<path d="" fill="#85ABAD" transform="translate(0,0)"/>
<path d="" fill="#87ADB1" transform="translate(0,0)"/>
<path d="" fill="#86AAAF" transform="translate(0,0)"/>
<path d="" fill="#7DA2A6" transform="translate(0,0)"/>
<path d="" fill="#7EA3A8" transform="translate(0,0)"/>
<path d="" fill="#7CA3A7" transform="translate(0,0)"/>
<path d="" fill="#81A9AE" transform="translate(0,0)"/>
<path d="" fill="#83AAAE" transform="translate(0,0)"/>
<path d="" fill="#7FA4A7" transform="translate(0,0)"/>
<path d="" fill="#7DA0A6" transform="translate(0,0)"/>
<path d="" fill="#80A5A9" transform="translate(0,0)"/>
<path d="" fill="#7FA3A7" transform="translate(0,0)"/>
<path d="" fill="#83A8AD" transform="translate(0,0)"/>
<path d="" fill="#86ABAF" transform="translate(0,0)"/>
<path d="" fill="#85ABAE" transform="translate(0,0)"/>
<path d="" fill="#85ACAF" transform="translate(0,0)"/>
<path d="" fill="#85ABAF" transform="translate(0,0)"/>
<path d="" fill="#88ACB3" transform="translate(0,0)"/>
<path d="" fill="#86ABAF" transform="translate(0,0)"/>
<path d="" fill="#84ABAE" transform="translate(0,0)"/>
<path d="" fill="#84A9AD" transform="translate(0,0)"/>
<path d="" fill="#7CA2A5" transform="translate(0,0)"/>
<path d="" fill="#87ACB1" transform="translate(0,0)"/>
<path d="" fill="#85ACB0" transform="translate(0,0)"/>
<path d="" fill="#81A5AC" transform="translate(0,0)"/>
<path d="" fill="#7FA5A9" transform="translate(0,0)"/>
<path d="" fill="#89ADB2" transform="translate(0,0)"/>
<path d="" fill="#82ABAD" transform="translate(0,0)"/>
<path d="" fill="#7FA7A9" transform="translate(0,0)"/>
<path d="" fill="#85ACAF" transform="translate(0,0)"/>
<path d="" fill="#83A8AC" transform="translate(0,0)"/>
<path d="" fill="#7EA4A8" transform="translate(0,0)"/>
<path d="" fill="#87ACB2" transform="translate(0,0)"/>
<path d="" fill="#83A9B0" transform="translate(0,0)"/>
<path d="" fill="#85ABAF" transform="translate(0,0)"/>
<path d="" fill="#81A7AC" transform="translate(0,0)"/>
<path d="" fill="#81A6AB" transform="translate(0,0)"/>
<path d="" fill="#7FA4A7" transform="translate(0,0)"/>
<path d="" fill="#82A3A7" transform="translate(0,0)"/>
<path d="" fill="#80A6AB" transform="translate(0,0)"/>
<path d="" fill="#84ABAF" transform="translate(0,0)"/>
<path d="" fill="#84ABAF" transform="translate(0,0)"/>
<path d="" fill="#83AAB0" transform="translate(0,0)"/>
<path d="" fill="#85ADB2" transform="translate(0,0)"/>
<path d="" fill="#83AAB0" transform="translate(0,0)"/>
<path d="" fill="#83ABB0" transform="translate(0,0)"/>
<path d="" fill="#85ABB1" transform="translate(0,0)"/>
<path d="" fill="#83ABAF" transform="translate(0,0)"/>
<path d="" fill="#83A9AF" transform="translate(0,0)"/>
<path d="" fill="#7FA5AA" transform="translate(0,0)"/>
<path d="" fill="#84A8AD" transform="translate(0,0)"/>
<path d="" fill="#81A9A9" transform="translate(0,0)"/>
<path d="" fill="#81A6AA" transform="translate(0,0)"/>
<path d="" fill="#7DA1A4" transform="translate(0,0)"/>
<path d="" fill="#84ADB3" transform="translate(0,0)"/>
<path d="" fill="#81A5AD" transform="translate(0,0)"/>
<path d="" fill="#83A9AE" transform="translate(0,0)"/>
<path d="" fill="#85ACB0" transform="translate(0,0)"/>
<path d="" fill="#83AAAB" transform="translate(0,0)"/>
<path d="" fill="#81A9AE" transform="translate(0,0)"/>
<path d="" fill="#85AAB0" transform="translate(0,0)"/>
<path d="" fill="#84ACB0" transform="translate(0,0)"/>
<path d="" fill="#85ACB1" transform="translate(0,0)"/>
<path d="" fill="#84AAAF" transform="translate(0,0)"/>
<path d="" fill="#82AAAD" transform="translate(0,0)"/>
<path d="" fill="#85AEB1" transform="translate(0,0)"/>
<path d="" fill="#86ACB1" transform="translate(0,0)"/>
<path d="" fill="#83A9AE" transform="translate(0,0)"/>
<path d="" fill="#83A8AD" transform="translate(0,0)"/>
<path d="" fill="#86ACB0" transform="translate(0,0)"/>
<path d="" fill="#85ABB2" transform="translate(0,0)"/>
<path d="" fill="#9ABABB" transform="translate(0,0)"/>
<path d="" fill="#87ADB1" transform="translate(0,0)"/>
<path d="" fill="#86ACB2" transform="translate(0,0)"/>
<path d="" fill="#86ACB1" transform="translate(0,0)"/>
<path d="" fill="#89AEB2" transform="translate(0,0)"/>
<path d="" fill="#84ABB2" transform="translate(0,0)"/>
<path d="" fill="#A2C2C2" transform="translate(0,0)"/>
<path d="" fill="#88AFB2" transform="translate(0,0)"/>
<path d="" fill="#82A6AA" transform="translate(0,0)"/>
<path d="" fill="#A3C2C3" transform="translate(0,0)"/>
<path d="" fill="#84ABB1" transform="translate(0,0)"/>
<path d="" fill="#83A8AE" transform="translate(0,0)"/>
<path d="" fill="#85ACB1" transform="translate(0,0)"/>
<path d="" fill="#85ACAF" transform="translate(0,0)"/>
<path d="" fill="#81A8AC" transform="translate(0,0)"/>
<path d="" fill="#87ACAF" transform="translate(0,0)"/>
<path d="" fill="#85ABAF" transform="translate(0,0)"/>
<path d="" fill="#85A9AE" transform="translate(0,0)"/>
<path d="" fill="#82A7AD" transform="translate(0,0)"/>
<path d="" fill="#99BABE" transform="translate(0,0)"/>
<path d="" fill="#82A9AF" transform="translate(0,0)"/>
<path d="" fill="#84AAB0" transform="translate(0,0)"/>
<path d="" fill="#99BBBD" transform="translate(0,0)"/>
<path d="" fill="#82ABB0" transform="translate(0,0)"/>
<path d="" fill="#81A8AC" transform="translate(0,0)"/>
<path d="" fill="#83ABB0" transform="translate(0,0)"/>
<path d="" fill="#7FA5AC" transform="translate(0,0)"/>
<path d="" fill="#85ADB2" transform="translate(0,0)"/>
<path d="" fill="#85AAAF" transform="translate(0,0)"/>
<path d="" fill="#82A7AC" transform="translate(0,0)"/>
<path d="" fill="#85ABB1" transform="translate(0,0)"/>
<path d="" fill="#85ACAF" transform="translate(0,0)"/>
<path d="" fill="#87AEB1" transform="translate(0,0)"/>
<path d="" fill="#83A8AA" transform="translate(0,0)"/>
<path d="" fill="#87ACB0" transform="translate(0,0)"/>
<path d="" fill="#84ABAE" transform="translate(0,0)"/>
<path d="" fill="#8CAFB2" transform="translate(0,0)"/>
<path d="" fill="#82AAAE" transform="translate(0,0)"/>
<path d="" fill="#85ABB0" transform="translate(0,0)"/>
<path d="" fill="#83A8AD" transform="translate(0,0)"/>
<path d="" fill="#87ADB1" transform="translate(0,0)"/>
<path d="" fill="#84A7AB" transform="translate(0,0)"/>
<path d="" fill="#84ACB0" transform="translate(0,0)"/>
<path d="" fill="#86AAAF" transform="translate(0,0)"/>
<path d="" fill="#81A9AE" transform="translate(0,0)"/>
<path d="" fill="#85ACAE" transform="translate(0,0)"/>
<path d="" fill="#83A5A8" transform="translate(0,0)"/>
<path d="" fill="#83A9AF" transform="translate(0,0)"/>
<path d="" fill="#85A8AC" transform="translate(0,0)"/>
<path d="" fill="#84ABAF" transform="translate(0,0)"/>
<path d="" fill="#82A8AD" transform="translate(0,0)"/>
<path d="" fill="#82AAAC" transform="translate(0,0)"/>
<path d="" fill="#81A8AB" transform="translate(0,0)"/>
<path d="" fill="#7EA7AB" transform="translate(0,0)"/>
<path d="" fill="#84A9AF" transform="translate(0,0)"/>
<path d="" fill="#83AAAF" transform="translate(0,0)"/>
<path d="" fill="#82A9AF" transform="translate(0,0)"/>
<path d="" fill="#83AAAE" transform="translate(0,0)"/>
<path d="" fill="#84AAAE" transform="translate(0,0)"/>
<path d="" fill="#82A7AB" transform="translate(0,0)"/>
<path d="" fill="#86AAAF" transform="translate(0,0)"/>
<path d="" fill="#83A8AC" transform="translate(0,0)"/>
<path d="" fill="#83A8AE" transform="translate(0,0)"/>
<path d="" fill="#84ABAC" transform="translate(0,0)"/>
<path d="" fill="#84A9AD" transform="translate(0,0)"/>
<path d="" fill="#82A6A8" transform="translate(0,0)"/>
<path d="" fill="#83A3A7" transform="translate(0,0)"/>
<path d="" fill="#84AAAD" transform="translate(0,0)"/>
<path d="" fill="#7CA2A3" transform="translate(0,0)"/>
<path d="" fill="#82A9AC" transform="translate(0,0)"/>
<path d="" fill="#80A7A8" transform="translate(0,0)"/>
<path d="" fill="#80A5A6" transform="translate(0,0)"/>
<path d="" fill="#82A6AA" transform="translate(0,0)"/>
<path d="" fill="#84A8AC" transform="translate(0,0)"/>
<path d="" fill="#83A7AA" transform="translate(0,0)"/>
<path d="" fill="#82A5AA" transform="translate(0,0)"/>
<path d="" fill="#83A6AB" transform="translate(0,0)"/>
<path d="" fill="#85A7AC" transform="translate(0,0)"/>
<path d="" fill="#82A8AA" transform="translate(0,0)"/>
<path d="" fill="#85A9AC" transform="translate(0,0)"/>
<path d="" fill="#7FA6A9" transform="translate(0,0)"/>
<path d="" fill="#82A7A7" transform="translate(0,0)"/>
<path d="" fill="#82A5A9" transform="translate(0,0)"/>
<path d="" fill="#82A7AA" transform="translate(0,0)"/>
<path d="" fill="#82A5AA" transform="translate(0,0)"/>
<path d="" fill="#82A6AA" transform="translate(0,0)"/>
<path d="" fill="#80A5A9" transform="translate(0,0)"/>
<path d="" fill="#80A4A7" transform="translate(0,0)"/>
<path d="" fill="#7FA2A5" transform="translate(0,0)"/>
<path d="" fill="#82A4A7" transform="translate(0,0)"/>
<path d="" fill="#82A6AA" transform="translate(0,0)"/>
<path d="" fill="#83A5AB" transform="translate(0,0)"/>
<path d="" fill="#83A5A8" transform="translate(0,0)"/>
<path d="" fill="#83A7AA" transform="translate(0,0)"/>
<path d="" fill="#82A8A9" transform="translate(0,0)"/>
<path d="" fill="#83A7AB" transform="translate(0,0)"/>
</svg>
